<?xml version="1.0" encoding="UTF-8"?>
<?xml-stylesheet href="https://cdnjs.cloudflare.com/ajax/libs/font-awesome/6.7.2/css/all.min.css" type="text/css"?>
<svg id="graph-3" width="100%" xmlns="http://www.w3.org/2000/svg" class="erDiagram" style="overflow: hidden; max-width: 100%; touch-action: none; -webkit-user-select: none; -webkit-user-drag: none; background-color: rgb(2, 8, 23);" role="graphics-document document" aria-roledescription="er" height="100%" xmlns:xlink="http://www.w3.org/1999/xlink" xmlns:ev="http://www.w3.org/2001/xml-events"><g id="viewport-20260409191122110" class="svg-pan-zoom_viewport" transform="matrix(0.6160896130346232,0,0,0.6160896130346232,263.19485576533714,37.812480520723604)" style="transform: matrix(0.61609, 0, 0, 0.61609, 263.194856, 37.812481);"><style>#graph-3{font-family:"trebuchet ms",verdana,arial,sans-serif;font-size:16px;fill:#ccc;}@keyframes edge-animation-frame{from{stroke-dashoffset:0;}}@keyframes dash{to{stroke-dashoffset:0;}}#graph-3 .edge-animation-slow{stroke-dasharray:9,5!important;stroke-dashoffset:900;animation:dash 50s linear infinite;stroke-linecap:round;}#graph-3 .edge-animation-fast{stroke-dasharray:9,5!important;stroke-dashoffset:900;animation:dash 20s linear infinite;stroke-linecap:round;}#graph-3 .error-icon{fill:#a44141;}#graph-3 .error-text{fill:#ddd;stroke:#ddd;}#graph-3 .edge-thickness-normal{stroke-width:1px;}#graph-3 .edge-thickness-thick{stroke-width:3.5px;}#graph-3 .edge-pattern-solid{stroke-dasharray:0;}#graph-3 .edge-thickness-invisible{stroke-width:0;fill:none;}#graph-3 .edge-pattern-dashed{stroke-dasharray:3;}#graph-3 .edge-pattern-dotted{stroke-dasharray:2;}#graph-3 .marker{fill:lightgrey;stroke:lightgrey;}#graph-3 .marker.cross{stroke:lightgrey;}#graph-3 svg{font-family:"trebuchet ms",verdana,arial,sans-serif;font-size:16px;}#graph-3 p{margin:0;}#graph-3 .entityBox{fill:#1f2020;stroke:#ccc;}#graph-3 .relationshipLabelBox{fill:hsl(20, 1.5873015873%, 12.3529411765%);opacity:0.7;background-color:hsl(20, 1.5873015873%, 12.3529411765%);}#graph-3 .relationshipLabelBox rect{opacity:0.5;}#graph-3 .labelBkg{background-color:rgba(32.0000000001, 31.3333333334, 31.0000000001, 0.5);}#graph-3 .edgeLabel .label{fill:#ccc;font-size:14px;}#graph-3 .label{font-family:"trebuchet ms",verdana,arial,sans-serif;color:#ccc;}#graph-3 .edge-pattern-dashed{stroke-dasharray:8,8;}#graph-3 .node rect,#graph-3 .node circle,#graph-3 .node ellipse,#graph-3 .node polygon{fill:#1f2020;stroke:#ccc;stroke-width:1px;}#graph-3 .relationshipLine{stroke:lightgrey;stroke-width:1;fill:none;}#graph-3 .marker{fill:none!important;stroke:lightgrey!important;stroke-width:1;}#graph-3 .edgeLabel{background-color:hsl(0, 0%, 34.4117647059%);}#graph-3 .edgeLabel .label rect{fill:hsl(0, 0%, 34.4117647059%);}#graph-3 .edgeLabel .label text{fill:#ccc;}#graph-3 :root{--mermaid-font-family:"trebuchet ms",verdana,arial,sans-serif;}</style><g><defs><marker id="graph-3_er-onlyOneStart" class="marker onlyOne er" refX="0" refY="9" markerWidth="18" markerHeight="18" orient="auto"><path d="M9,0 L9,18 M15,0 L15,18"></path></marker></defs><defs><marker id="graph-3_er-onlyOneEnd" class="marker onlyOne er" refX="18" refY="9" markerWidth="18" markerHeight="18" orient="auto"><path d="M3,0 L3,18 M9,0 L9,18"></path></marker></defs><defs><marker id="graph-3_er-zeroOrOneStart" class="marker zeroOrOne er" refX="0" refY="9" markerWidth="30" markerHeight="18" orient="auto"><circle fill="white" cx="21" cy="9" r="6"></circle><path d="M9,0 L9,18"></path></marker></defs><defs><marker id="graph-3_er-zeroOrOneEnd" class="marker zeroOrOne er" refX="30" refY="9" markerWidth="30" markerHeight="18" orient="auto"><circle fill="white" cx="9" cy="9" r="6"></circle><path d="M21,0 L21,18"></path></marker></defs><defs><marker id="graph-3_er-oneOrMoreStart" class="marker oneOrMore er" refX="18" refY="18" markerWidth="45" markerHeight="36" orient="auto"><path d="M0,18 Q 18,0 36,18 Q 18,36 0,18 M42,9 L42,27"></path></marker></defs><defs><marker id="graph-3_er-oneOrMoreEnd" class="marker oneOrMore er" refX="27" refY="18" markerWidth="45" markerHeight="36" orient="auto"><path d="M3,9 L3,27 M9,18 Q27,0 45,18 Q27,36 9,18"></path></marker></defs><defs><marker id="graph-3_er-zeroOrMoreStart" class="marker zeroOrMore er" refX="18" refY="18" markerWidth="57" markerHeight="36" orient="auto"><circle fill="white" cx="48" cy="18" r="6"></circle><path d="M0,18 Q18,0 36,18 Q18,36 0,18"></path></marker></defs><defs><marker id="graph-3_er-zeroOrMoreEnd" class="marker zeroOrMore er" refX="39" refY="18" markerWidth="57" markerHeight="36" orient="auto"><circle fill="white" cx="9" cy="18" r="6"></circle><path d="M21,18 Q39,0 57,18 Q39,36 21,18"></path></marker></defs><g class="root"><g class="clusters"></g><g class="edgePaths"><path d="M216.004,93.327L199.333,101.773C182.661,110.218,149.319,127.109,134.002,143.971C118.685,160.833,121.393,177.667,122.747,186.083L124.101,194.5" id="id_entity-USER-0_entity-ISSUE-1_0" class="edge-thickness-normal edge-pattern-solid relationshipLine" style="undefined;;;undefined" data-edge="true" data-et="edge" data-id="id_entity-USER-0_entity-ISSUE-1_0" data-points="W3sieCI6MjE2LjAwMzkwNjI1LCJ5Ijo5My4zMjcyMzQwNDcwNjgzMn0seyJ4IjoxMTUuOTc2NTYyNSwieSI6MTQ0fSx7IngiOjEyNC4xMDExMDQxMjM3Nzc2NiwieSI6MTk0LjV9XQ==" marker-start="url(#graph-3_er-onlyOneStart)" marker-end="url(#graph-3_er-zeroOrMoreEnd)"></path><path d="M250.113,227.645L258.436,213.704C266.759,199.764,283.405,171.882,291.728,149.524C300.051,127.167,300.051,110.333,300.051,101.917L300.051,93.5" id="id_entity-ISSUE-1_entity-USER-0_1" class="edge-thickness-normal edge-pattern-solid relationshipLine" style="undefined;;;undefined" data-edge="true" data-et="edge" data-id="id_entity-ISSUE-1_entity-USER-0_1" data-points="W3sieCI6MjUwLjExMzI4MTI1LCJ5IjoyMjcuNjQ1MzEyNX0seyJ4IjozMDAuMDUwNzgxMjUsInkiOjE0NH0seyJ4IjozMDAuMDUwNzgxMjUsInkiOjkzLjV9XQ==" marker-start="url(#graph-3_er-zeroOrMoreStart)" marker-end="url(#graph-3_er-zeroOrMoreEnd)"></path><path d="M109.021,579.25L107.007,587.667C104.993,596.083,100.965,612.917,98.951,636.875C96.938,660.833,96.938,691.917,96.938,707.458L96.938,723" id="id_entity-ISSUE-1_entity-LABEL-3_2" class="edge-thickness-normal edge-pattern-solid relationshipLine" style="undefined;;;undefined" data-edge="true" data-et="edge" data-id="id_entity-ISSUE-1_entity-LABEL-3_2" data-points="W3sieCI6MTA5LjAyMDc1NTU5NzAxNDkzLCJ5Ijo1NzkuMjV9LHsieCI6OTYuOTM3NSwieSI6NjI5Ljc1fSx7IngiOjk2LjkzNzUsInkiOjcyM31d" marker-start="url(#graph-3_er-zeroOrMoreStart)" marker-end="url(#graph-3_er-zeroOrMoreEnd)"></path><path d="M250.113,533.606L260.495,549.63C270.876,565.654,291.639,597.702,308.162,622.143C324.686,646.583,336.969,663.417,343.11,671.833L349.252,680.25" id="id_entity-ISSUE-1_entity-EVENT-2_3" class="edge-thickness-normal edge-pattern-solid relationshipLine" style="undefined;;;undefined" data-edge="true" data-et="edge" data-id="id_entity-ISSUE-1_entity-EVENT-2_3" data-points="W3sieCI6MjUwLjExMzI4MTI1LCJ5Ijo1MzMuNjA1Njk4NTc1MDQ2fSx7IngiOjMxMi40MDIzNDM3NSwieSI6NjI5Ljc1fSx7IngiOjM0OS4yNTE4NTI1OTY1MDc0LCJ5Ijo2ODAuMjV9XQ==" marker-start="url(#graph-3_er-onlyOneStart)" marker-end="url(#graph-3_er-zeroOrMoreEnd)"></path><path d="M358.162,93.5L369.603,101.917C381.044,110.333,403.926,127.167,415.368,176.063C426.809,224.958,426.809,305.917,426.809,386.875C426.809,467.833,426.809,548.792,425.87,597.688C424.931,646.583,423.054,663.417,422.115,671.833L421.176,680.25" id="id_entity-USER-0_entity-EVENT-2_4" class="edge-thickness-normal edge-pattern-solid relationshipLine" style="undefined;;;undefined" data-edge="true" data-et="edge" data-id="id_entity-USER-0_entity-EVENT-2_4" data-points="W3sieCI6MzU4LjE2MjI3MTY5OTA2MTY1LCJ5Ijo5My41fSx7IngiOjQyNi44MDg1OTM3NSwieSI6MTQ0fSx7IngiOjQyNi44MDg1OTM3NSwieSI6Mzg2Ljg3NX0seyJ4Ijo0MjYuODA4NTkzNzUsInkiOjYyOS43NX0seyJ4Ijo0MjEuMTc2MzcwMDU5NzQyNiwieSI6NjgwLjI1fV0=" marker-start="url(#graph-3_er-onlyOneStart)" marker-end="url(#graph-3_er-zeroOrMoreEnd)"></path></g><g class="edgeLabels"><g class="edgeLabel" transform="translate(115.9765625, 144)"><g class="label" data-id="id_entity-USER-0_entity-ISSUE-1_0" transform="translate(-23.109375, -10.5)"><foreignObject width="46.21875" height="21"><div xmlns="http://www.w3.org/1999/xhtml" class="labelBkg" style="display: table-cell; white-space: nowrap; line-height: 1.5; max-width: 200px; text-align: center;"><span class="edgeLabel"><p>creates</p></span></div></foreignObject></g></g><g class="edgeLabel" transform="translate(300.05078125, 144)"><g class="label" data-id="id_entity-ISSUE-1_entity-USER-0_1" transform="translate(-35.0390625, -10.5)"><foreignObject width="70.078125" height="21"><div xmlns="http://www.w3.org/1999/xhtml" class="labelBkg" style="display: table-cell; white-space: nowrap; line-height: 1.5; max-width: 200px; text-align: center;"><span class="edgeLabel"><p>assigned to</p></span></div></foreignObject></g></g><g class="edgeLabel" transform="translate(96.9375, 629.75)"><g class="label" data-id="id_entity-ISSUE-1_entity-LABEL-3_2" transform="translate(-10.3359375, -10.5)"><foreignObject width="20.671875" height="21"><div xmlns="http://www.w3.org/1999/xhtml" class="labelBkg" style="display: table-cell; white-space: nowrap; line-height: 1.5; max-width: 200px; text-align: center;"><span class="edgeLabel"><p>has</p></span></div></foreignObject></g></g><g class="edgeLabel" transform="translate(298.25352, 607.91103)"><g class="label" data-id="id_entity-ISSUE-1_entity-EVENT-2_3" transform="translate(-10.3359375, -10.5)"><foreignObject width="20.671875" height="21"><div xmlns="http://www.w3.org/1999/xhtml" class="labelBkg" style="display: table-cell; white-space: nowrap; line-height: 1.5; max-width: 200px; text-align: center;"><span class="edgeLabel"><p>has</p></span></div></foreignObject></g></g><g class="edgeLabel" transform="translate(426.80859375, 386.875)"><g class="label" data-id="id_entity-USER-0_entity-EVENT-2_4" transform="translate(-23.4140625, -10.5)"><foreignObject width="46.828125" height="21"><div xmlns="http://www.w3.org/1999/xhtml" class="labelBkg" style="display: table-cell; white-space: nowrap; line-height: 1.5; max-width: 200px; text-align: center;"><span class="edgeLabel"><p>authors</p></span></div></foreignObject></g></g></g><g class="nodes"><g class="node default" id="entity-USER-0" transform="translate(300.05078125, 50.75)"><g style=""><path d="M-84.046875 -42.75 L84.046875 -42.75 L84.046875 42.75 L-84.046875 42.75" stroke="none" stroke-width="0" fill="#1f2020"></path><path d="M-84.046875 -42.75 C-25.239113603102766 -42.75, 33.56864779379447 -42.75, 84.046875 -42.75 M-84.046875 -42.75 C-24.021843969995892 -42.75, 36.003187060008216 -42.75, 84.046875 -42.75 M84.046875 -42.75 C84.046875 -13.489082643284046, 84.046875 15.771834713431907, 84.046875 42.75 M84.046875 -42.75 C84.046875 -23.900701011768916, 84.046875 -5.0514020235378325, 84.046875 42.75 M84.046875 42.75 C29.17517614297293 42.75, -25.69652271405414 42.75, -84.046875 42.75 M84.046875 42.75 C23.152869209442734 42.75, -37.74113658111453 42.75, -84.046875 42.75 M-84.046875 42.75 C-84.046875 23.50282784604438, -84.046875 4.255655692088759, -84.046875 -42.75 M-84.046875 42.75 C-84.046875 14.955641206790645, -84.046875 -12.83871758641871, -84.046875 -42.75" stroke="#ccc" stroke-width="1.3" fill="none" stroke-dasharray="0 0"></path></g><g style="" class="row-rect-odd"><path d="M-84.046875 0 L84.046875 0 L84.046875 42.75 L-84.046875 42.75" stroke="none" stroke-width="0" fill="hsl(180, 1.5873015873%, 17.3529411765%)"></path><path d="M-84.046875 0 C-23.333112388946212 0, 37.380650222107576 0, 84.046875 0 M-84.046875 0 C-29.74821680565349 0, 24.550441388693017 0, 84.046875 0 M84.046875 0 C84.046875 10.526626249782579, 84.046875 21.053252499565158, 84.046875 42.75 M84.046875 0 C84.046875 9.483503474911224, 84.046875 18.967006949822448, 84.046875 42.75 M84.046875 42.75 C37.29842391408665 42.75, -9.450027171826704 42.75, -84.046875 42.75 M84.046875 42.75 C45.92478873685366 42.75, 7.802702473707313 42.75, -84.046875 42.75 M-84.046875 42.75 C-84.046875 26.34267842868083, -84.046875 9.935356857361661, -84.046875 0 M-84.046875 42.75 C-84.046875 32.2881031215493, -84.046875 21.8262062430986, -84.046875 0" stroke="#ccc" stroke-width="1.3" fill="none" stroke-dasharray="0 0"></path></g><g class="label name" transform="translate(-17.9765625, -33.375)" style=""><foreignObject width="35.953125" height="24"><div xmlns="http://www.w3.org/1999/xhtml" style="display: table-cell; white-space: nowrap; line-height: 1.5; max-width: 138px; text-align: start;"><span class="nodeLabel"><p>USER</p></span></div></foreignObject></g><g class="label attribute-type" transform="translate(-71.546875, 9.375)" style=""><foreignObject width="40.375" height="24"><div xmlns="http://www.w3.org/1999/xhtml" style="display: table-cell; white-space: nowrap; line-height: 1.5; max-width: 149px; text-align: start;"><span class="nodeLabel"><p>string</p></span></div></foreignObject></g><g class="label attribute-name" transform="translate(-6.171875, 9.375)" style=""><foreignObject width="77.71875" height="24"><div xmlns="http://www.w3.org/1999/xhtml" style="display: table-cell; white-space: nowrap; line-height: 1.5; max-width: 187px; text-align: start;"><span class="nodeLabel"><p>user_name</p></span></div></foreignObject></g><g class="label attribute-keys" transform="translate(96.546875, 9.375)" style=""><foreignObject width="0" height="0"><div xmlns="http://www.w3.org/1999/xhtml" style="display: table-cell; white-space: nowrap; line-height: 1.5; max-width: 100px; text-align: start;"><span class="nodeLabel"></span></div></foreignObject></g><g class="label attribute-comment" transform="translate(96.546875, 9.375)" style=""><foreignObject width="0" height="0"><div xmlns="http://www.w3.org/1999/xhtml" style="display: table-cell; white-space: nowrap; line-height: 1.5; max-width: 100px; text-align: start;"><span class="nodeLabel"></span></div></foreignObject></g><g class="divider"><path d="M-84.046875 0 C-36.52693889904744 0, 10.992997201905126 0, 84.046875 0 M-84.046875 0 C-34.406491260293855 0, 15.23389247941229 0, 84.046875 0" stroke="#ccc" stroke-width="1.3" fill="none" stroke-dasharray="0 0"></path></g><g class="divider"><path d="M-18.671875 0 C-18.671875 12.26752901307778, -18.671875 24.53505802615556, -18.671875 42.75 M-18.671875 0 C-18.671875 10.686848912152389, -18.671875 21.373697824304777, -18.671875 42.75" stroke="#ccc" stroke-width="1.3" fill="none" stroke-dasharray="0 0"></path></g><g class="divider"><path d="M-84.046875 0 C-41.42432956310166 0, 1.1982158737966841 0, 84.046875 0 M-84.046875 0 C-48.38965985754796 0, -12.732444715095923 0, 84.046875 0" stroke="#ccc" stroke-width="1.3" fill="none" stroke-dasharray="0 0"></path></g></g><g class="node default" id="entity-ISSUE-1" transform="translate(155.05078125, 386.875)"><g style=""><path d="M-95.0625 -192.375 L95.0625 -192.375 L95.0625 192.375 L-95.0625 192.375" stroke="none" stroke-width="0" fill="#1f2020"></path><path d="M-95.0625 -192.375 C-31.990737641470588 -192.375, 31.081024717058824 -192.375, 95.0625 -192.375 M-95.0625 -192.375 C-23.795863527065308 -192.375, 47.470772945869385 -192.375, 95.0625 -192.375 M95.0625 -192.375 C95.0625 -57.257710630740206, 95.0625 77.85957873851959, 95.0625 192.375 M95.0625 -192.375 C95.0625 -90.20396275676582, 95.0625 11.967074486468363, 95.0625 192.375 M95.0625 192.375 C33.975514158372995 192.375, -27.11147168325401 192.375, -95.0625 192.375 M95.0625 192.375 C24.997723936341785 192.375, -45.06705212731643 192.375, -95.0625 192.375 M-95.0625 192.375 C-95.0625 75.67246507602025, -95.0625 -41.03006984795951, -95.0625 -192.375 M-95.0625 192.375 C-95.0625 88.6220131307284, -95.0625 -15.13097373854319, -95.0625 -192.375" stroke="#ccc" stroke-width="1.3" fill="none" stroke-dasharray="0 0"></path></g><g style="" class="row-rect-odd"><path d="M-95.0625 -149.625 L95.0625 -149.625 L95.0625 -106.875 L-95.0625 -106.875" stroke="none" stroke-width="0" fill="hsl(180, 1.5873015873%, 17.3529411765%)"></path><path d="M-95.0625 -149.625 C-39.409009023371574 -149.625, 16.24448195325685 -149.625, 95.0625 -149.625 M-95.0625 -149.625 C-37.71466779016972 -149.625, 19.63316441966056 -149.625, 95.0625 -149.625 M95.0625 -149.625 C95.0625 -137.45022925633572, 95.0625 -125.27545851267145, 95.0625 -106.875 M95.0625 -149.625 C95.0625 -134.32859403246476, 95.0625 -119.03218806492954, 95.0625 -106.875 M95.0625 -106.875 C44.80820214002042 -106.875, -5.44609571995916 -106.875, -95.0625 -106.875 M95.0625 -106.875 C52.45758028796995 -106.875, 9.852660575939893 -106.875, -95.0625 -106.875 M-95.0625 -106.875 C-95.0625 -122.61485163864258, -95.0625 -138.35470327728515, -95.0625 -149.625 M-95.0625 -106.875 C-95.0625 -121.56954305233144, -95.0625 -136.26408610466288, -95.0625 -149.625" stroke="#ccc" stroke-width="1.3" fill="none" stroke-dasharray="0 0"></path></g><g style="" class="row-rect-even"><path d="M-95.0625 -106.875 L95.0625 -106.875 L95.0625 -64.125 L-95.0625 -64.125" stroke="none" stroke-width="0" fill="hsl(180, 1.5873015873%, 2.3529411765%)"></path><path d="M-95.0625 -106.875 C-46.68816370574723 -106.875, 1.686172588505542 -106.875, 95.0625 -106.875 M-95.0625 -106.875 C-50.05716425155542 -106.875, -5.0518285031108405 -106.875, 95.0625 -106.875 M95.0625 -106.875 C95.0625 -93.7342054535254, 95.0625 -80.59341090705081, 95.0625 -64.125 M95.0625 -106.875 C95.0625 -93.4182024491294, 95.0625 -79.96140489825879, 95.0625 -64.125 M95.0625 -64.125 C53.797314906517286 -64.125, 12.532129813034572 -64.125, -95.0625 -64.125 M95.0625 -64.125 C26.93674770944409 -64.125, -41.18900458111182 -64.125, -95.0625 -64.125 M-95.0625 -64.125 C-95.0625 -79.9854694833431, -95.0625 -95.84593896668619, -95.0625 -106.875 M-95.0625 -64.125 C-95.0625 -75.3704073384356, -95.0625 -86.6158146768712, -95.0625 -106.875" stroke="#ccc" stroke-width="1.3" fill="none" stroke-dasharray="0 0"></path></g><g style="" class="row-rect-odd"><path d="M-95.0625 -64.125 L95.0625 -64.125 L95.0625 -21.375 L-95.0625 -21.375" stroke="none" stroke-width="0" fill="hsl(180, 1.5873015873%, 17.3529411765%)"></path><path d="M-95.0625 -64.125 C-41.198061402943544 -64.125, 12.666377194112911 -64.125, 95.0625 -64.125 M-95.0625 -64.125 C-50.58951737000018 -64.125, -6.116534740000361 -64.125, 95.0625 -64.125 M95.0625 -64.125 C95.0625 -49.99295604057916, 95.0625 -35.86091208115832, 95.0625 -21.375 M95.0625 -64.125 C95.0625 -48.62234795516524, 95.0625 -33.11969591033048, 95.0625 -21.375 M95.0625 -21.375 C23.387916599787104 -21.375, -48.28666680042579 -21.375, -95.0625 -21.375 M95.0625 -21.375 C40.83154862545486 -21.375, -13.399402749090285 -21.375, -95.0625 -21.375 M-95.0625 -21.375 C-95.0625 -31.26136351693696, -95.0625 -41.14772703387392, -95.0625 -64.125 M-95.0625 -21.375 C-95.0625 -35.52595703703733, -95.0625 -49.67691407407466, -95.0625 -64.125" stroke="#ccc" stroke-width="1.3" fill="none" stroke-dasharray="0 0"></path></g><g style="" class="row-rect-even"><path d="M-95.0625 -21.375 L95.0625 -21.375 L95.0625 21.375 L-95.0625 21.375" stroke="none" stroke-width="0" fill="hsl(180, 1.5873015873%, 2.3529411765%)"></path><path d="M-95.0625 -21.375 C-33.15521299310562 -21.375, 28.752074013788757 -21.375, 95.0625 -21.375 M-95.0625 -21.375 C-51.593093825367355 -21.375, -8.123687650734709 -21.375, 95.0625 -21.375 M95.0625 -21.375 C95.0625 -4.944725991727115, 95.0625 11.48554801654577, 95.0625 21.375 M95.0625 -21.375 C95.0625 -5.337815496438772, 95.0625 10.699369007122456, 95.0625 21.375 M95.0625 21.375 C36.50455597413994 21.375, -22.05338805172012 21.375, -95.0625 21.375 M95.0625 21.375 C23.391081108729438 21.375, -48.280337782541125 21.375, -95.0625 21.375 M-95.0625 21.375 C-95.0625 5.819115552869686, -95.0625 -9.736768894260628, -95.0625 -21.375 M-95.0625 21.375 C-95.0625 8.699159602343522, -95.0625 -3.976680795312955, -95.0625 -21.375" stroke="#ccc" stroke-width="1.3" fill="none" stroke-dasharray="0 0"></path></g><g style="" class="row-rect-odd"><path d="M-95.0625 21.375 L95.0625 21.375 L95.0625 64.125 L-95.0625 64.125" stroke="none" stroke-width="0" fill="hsl(180, 1.5873015873%, 17.3529411765%)"></path><path d="M-95.0625 21.375 C-37.606096121052225 21.375, 19.85030775789555 21.375, 95.0625 21.375 M-95.0625 21.375 C-48.56049081230768 21.375, -2.0584816246153537 21.375, 95.0625 21.375 M95.0625 21.375 C95.0625 30.4447756839202, 95.0625 39.5145513678404, 95.0625 64.125 M95.0625 21.375 C95.0625 36.927202815093295, 95.0625 52.479405630186584, 95.0625 64.125 M95.0625 64.125 C49.987506048120736 64.125, 4.912512096241471 64.125, -95.0625 64.125 M95.0625 64.125 C38.22743979946049 64.125, -18.607620401079018 64.125, -95.0625 64.125 M-95.0625 64.125 C-95.0625 51.14061118041473, -95.0625 38.15622236082946, -95.0625 21.375 M-95.0625 64.125 C-95.0625 52.4288994648749, -95.0625 40.73279892974981, -95.0625 21.375" stroke="#ccc" stroke-width="1.3" fill="none" stroke-dasharray="0 0"></path></g><g style="" class="row-rect-even"><path d="M-95.0625 64.125 L95.0625 64.125 L95.0625 106.875 L-95.0625 106.875" stroke="none" stroke-width="0" fill="hsl(180, 1.5873015873%, 2.3529411765%)"></path><path d="M-95.0625 64.125 C-23.73767887137683 64.125, 47.58714225724634 64.125, 95.0625 64.125 M-95.0625 64.125 C-30.043213381705243 64.125, 34.976073236589514 64.125, 95.0625 64.125 M95.0625 64.125 C95.0625 75.63462669985239, 95.0625 87.14425339970478, 95.0625 106.875 M95.0625 64.125 C95.0625 73.32236767230353, 95.0625 82.51973534460707, 95.0625 106.875 M95.0625 106.875 C26.506580182998448 106.875, -42.049339634003104 106.875, -95.0625 106.875 M95.0625 106.875 C53.76019305147016 106.875, 12.457886102940321 106.875, -95.0625 106.875 M-95.0625 106.875 C-95.0625 98.16377138279236, -95.0625 89.45254276558472, -95.0625 64.125 M-95.0625 106.875 C-95.0625 91.9534604304472, -95.0625 77.03192086089437, -95.0625 64.125" stroke="#ccc" stroke-width="1.3" fill="none" stroke-dasharray="0 0"></path></g><g style="" class="row-rect-odd"><path d="M-95.0625 106.875 L95.0625 106.875 L95.0625 149.625 L-95.0625 149.625" stroke="none" stroke-width="0" fill="hsl(180, 1.5873015873%, 17.3529411765%)"></path><path d="M-95.0625 106.875 C-30.930483286010443 106.875, 33.201533427979115 106.875, 95.0625 106.875 M-95.0625 106.875 C-31.27954114660872 106.875, 32.50341770678256 106.875, 95.0625 106.875 M95.0625 106.875 C95.0625 119.50134046857673, 95.0625 132.12768093715346, 95.0625 149.625 M95.0625 106.875 C95.0625 120.0119214267772, 95.0625 133.1488428535544, 95.0625 149.625 M95.0625 149.625 C40.48381782146943 149.625, -14.094864357061141 149.625, -95.0625 149.625 M95.0625 149.625 C43.12878657934758 149.625, -8.804926841304834 149.625, -95.0625 149.625 M-95.0625 149.625 C-95.0625 135.51121878084203, -95.0625 121.39743756168409, -95.0625 106.875 M-95.0625 149.625 C-95.0625 136.64319292510956, -95.0625 123.66138585021912, -95.0625 106.875" stroke="#ccc" stroke-width="1.3" fill="none" stroke-dasharray="0 0"></path></g><g style="" class="row-rect-even"><path d="M-95.0625 149.625 L95.0625 149.625 L95.0625 192.375 L-95.0625 192.375" stroke="none" stroke-width="0" fill="hsl(180, 1.5873015873%, 2.3529411765%)"></path><path d="M-95.0625 149.625 C-27.53482375607865 149.625, 39.9928524878427 149.625, 95.0625 149.625 M-95.0625 149.625 C-32.24491100001816 149.625, 30.572677999963673 149.625, 95.0625 149.625 M95.0625 149.625 C95.0625 161.23766328252248, 95.0625 172.85032656504498, 95.0625 192.375 M95.0625 149.625 C95.0625 158.96420872130892, 95.0625 168.30341744261787, 95.0625 192.375 M95.0625 192.375 C50.57043873477879 192.375, 6.07837746955758 192.375, -95.0625 192.375 M95.0625 192.375 C47.19390030975335 192.375, -0.6746993804932941 192.375, -95.0625 192.375 M-95.0625 192.375 C-95.0625 178.6116249010399, -95.0625 164.8482498020798, -95.0625 149.625 M-95.0625 192.375 C-95.0625 179.0598658308696, -95.0625 165.74473166173917, -95.0625 149.625" stroke="#ccc" stroke-width="1.3" fill="none" stroke-dasharray="0 0"></path></g><g class="label name" transform="translate(-19.3984375, -183)" style=""><foreignObject width="38.796875" height="24"><div xmlns="http://www.w3.org/1999/xhtml" style="display: table-cell; white-space: nowrap; line-height: 1.5; max-width: 146px; text-align: start;"><span class="nodeLabel"><p>ISSUE</p></span></div></foreignObject></g><g class="label attribute-type" transform="translate(-82.5625, -140.25)" style=""><foreignObject width="40.375" height="24"><div xmlns="http://www.w3.org/1999/xhtml" style="display: table-cell; white-space: nowrap; line-height: 1.5; max-width: 149px; text-align: start;"><span class="nodeLabel"><p>string</p></span></div></foreignObject></g><g class="label attribute-name" transform="translate(-17.1875, -140.25)" style=""><foreignObject width="19.6875" height="24"><div xmlns="http://www.w3.org/1999/xhtml" style="display: table-cell; white-space: nowrap; line-height: 1.5; max-width: 122px; text-align: start;"><span class="nodeLabel"><p>url</p></span></div></foreignObject></g><g class="label attribute-keys" transform="translate(107.5625, -140.25)" style=""><foreignObject width="0" height="0"><div xmlns="http://www.w3.org/1999/xhtml" style="display: table-cell; white-space: nowrap; line-height: 1.5; max-width: 100px; text-align: start;"><span class="nodeLabel"></span></div></foreignObject></g><g class="label attribute-comment" transform="translate(107.5625, -140.25)" style=""><foreignObject width="0" height="0"><div xmlns="http://www.w3.org/1999/xhtml" style="display: table-cell; white-space: nowrap; line-height: 1.5; max-width: 100px; text-align: start;"><span class="nodeLabel"></span></div></foreignObject></g><g class="label attribute-type" transform="translate(-82.5625, -97.5)" style=""><foreignObject width="40.375" height="24"><div xmlns="http://www.w3.org/1999/xhtml" style="display: table-cell; white-space: nowrap; line-height: 1.5; max-width: 149px; text-align: start;"><span class="nodeLabel"><p>string</p></span></div></foreignObject></g><g class="label attribute-name" transform="translate(-17.1875, -97.5)" style=""><foreignObject width="36.296875" height="24"><div xmlns="http://www.w3.org/1999/xhtml" style="display: table-cell; white-space: nowrap; line-height: 1.5; max-width: 144px; text-align: start;"><span class="nodeLabel"><p>state</p></span></div></foreignObject></g><g class="label attribute-keys" transform="translate(107.5625, -97.5)" style=""><foreignObject width="0" height="0"><div xmlns="http://www.w3.org/1999/xhtml" style="display: table-cell; white-space: nowrap; line-height: 1.5; max-width: 100px; text-align: start;"><span class="nodeLabel"></span></div></foreignObject></g><g class="label attribute-comment" transform="translate(107.5625, -97.5)" style=""><foreignObject width="0" height="0"><div xmlns="http://www.w3.org/1999/xhtml" style="display: table-cell; white-space: nowrap; line-height: 1.5; max-width: 100px; text-align: start;"><span class="nodeLabel"></span></div></foreignObject></g><g class="label attribute-type" transform="translate(-82.5625, -54.75)" style=""><foreignObject width="40.375" height="24"><div xmlns="http://www.w3.org/1999/xhtml" style="display: table-cell; white-space: nowrap; line-height: 1.5; max-width: 149px; text-align: start;"><span class="nodeLabel"><p>string</p></span></div></foreignObject></g><g class="label attribute-name" transform="translate(-17.1875, -54.75)" style=""><foreignObject width="30.703125" height="24"><div xmlns="http://www.w3.org/1999/xhtml" style="display: table-cell; white-space: nowrap; line-height: 1.5; max-width: 137px; text-align: start;"><span class="nodeLabel"><p>title</p></span></div></foreignObject></g><g class="label attribute-keys" transform="translate(107.5625, -54.75)" style=""><foreignObject width="0" height="0"><div xmlns="http://www.w3.org/1999/xhtml" style="display: table-cell; white-space: nowrap; line-height: 1.5; max-width: 100px; text-align: start;"><span class="nodeLabel"></span></div></foreignObject></g><g class="label attribute-comment" transform="translate(107.5625, -54.75)" style=""><foreignObject width="0" height="0"><div xmlns="http://www.w3.org/1999/xhtml" style="display: table-cell; white-space: nowrap; line-height: 1.5; max-width: 100px; text-align: start;"><span class="nodeLabel"></span></div></foreignObject></g><g class="label attribute-type" transform="translate(-82.5625, -12)" style=""><foreignObject width="40.375" height="24"><div xmlns="http://www.w3.org/1999/xhtml" style="display: table-cell; white-space: nowrap; line-height: 1.5; max-width: 149px; text-align: start;"><span class="nodeLabel"><p>string</p></span></div></foreignObject></g><g class="label attribute-name" transform="translate(-17.1875, -12)" style=""><foreignObject width="29.4375" height="24"><div xmlns="http://www.w3.org/1999/xhtml" style="display: table-cell; white-space: nowrap; line-height: 1.5; max-width: 135px; text-align: start;"><span class="nodeLabel"><p>text</p></span></div></foreignObject></g><g class="label attribute-keys" transform="translate(107.5625, -12)" style=""><foreignObject width="0" height="0"><div xmlns="http://www.w3.org/1999/xhtml" style="display: table-cell; white-space: nowrap; line-height: 1.5; max-width: 100px; text-align: start;"><span class="nodeLabel"></span></div></foreignObject></g><g class="label attribute-comment" transform="translate(107.5625, -12)" style=""><foreignObject width="0" height="0"><div xmlns="http://www.w3.org/1999/xhtml" style="display: table-cell; white-space: nowrap; line-height: 1.5; max-width: 100px; text-align: start;"><span class="nodeLabel"></span></div></foreignObject></g><g class="label attribute-type" transform="translate(-82.5625, 30.75)" style=""><foreignObject width="19.65625" height="24"><div xmlns="http://www.w3.org/1999/xhtml" style="display: table-cell; white-space: nowrap; line-height: 1.5; max-width: 123px; text-align: start;"><span class="nodeLabel"><p>int</p></span></div></foreignObject></g><g class="label attribute-name" transform="translate(-17.1875, 30.75)" style=""><foreignObject width="54.625" height="24"><div xmlns="http://www.w3.org/1999/xhtml" style="display: table-cell; white-space: nowrap; line-height: 1.5; max-width: 159px; text-align: start;"><span class="nodeLabel"><p>number</p></span></div></foreignObject></g><g class="label attribute-keys" transform="translate(107.5625, 30.75)" style=""><foreignObject width="0" height="0"><div xmlns="http://www.w3.org/1999/xhtml" style="display: table-cell; white-space: nowrap; line-height: 1.5; max-width: 100px; text-align: start;"><span class="nodeLabel"></span></div></foreignObject></g><g class="label attribute-comment" transform="translate(107.5625, 30.75)" style=""><foreignObject width="0" height="0"><div xmlns="http://www.w3.org/1999/xhtml" style="display: table-cell; white-space: nowrap; line-height: 1.5; max-width: 100px; text-align: start;"><span class="nodeLabel"></span></div></foreignObject></g><g class="label attribute-type" transform="translate(-82.5625, 73.5)" style=""><foreignObject width="32.390625" height="24"><div xmlns="http://www.w3.org/1999/xhtml" style="display: table-cell; white-space: nowrap; line-height: 1.5; max-width: 137px; text-align: start;"><span class="nodeLabel"><p>date</p></span></div></foreignObject></g><g class="label attribute-name" transform="translate(-17.1875, 73.5)" style=""><foreignObject width="96.046875" height="24"><div xmlns="http://www.w3.org/1999/xhtml" style="display: table-cell; white-space: nowrap; line-height: 1.5; max-width: 208px; text-align: start;"><span class="nodeLabel"><p>created_date</p></span></div></foreignObject></g><g class="label attribute-keys" transform="translate(107.5625, 73.5)" style=""><foreignObject width="0" height="0"><div xmlns="http://www.w3.org/1999/xhtml" style="display: table-cell; white-space: nowrap; line-height: 1.5; max-width: 100px; text-align: start;"><span class="nodeLabel"></span></div></foreignObject></g><g class="label attribute-comment" transform="translate(107.5625, 73.5)" style=""><foreignObject width="0" height="0"><div xmlns="http://www.w3.org/1999/xhtml" style="display: table-cell; white-space: nowrap; line-height: 1.5; max-width: 100px; text-align: start;"><span class="nodeLabel"></span></div></foreignObject></g><g class="label attribute-type" transform="translate(-82.5625, 116.25)" style=""><foreignObject width="32.390625" height="24"><div xmlns="http://www.w3.org/1999/xhtml" style="display: table-cell; white-space: nowrap; line-height: 1.5; max-width: 137px; text-align: start;"><span class="nodeLabel"><p>date</p></span></div></foreignObject></g><g class="label attribute-name" transform="translate(-17.1875, 116.25)" style=""><foreignObject width="99.75" height="24"><div xmlns="http://www.w3.org/1999/xhtml" style="display: table-cell; white-space: nowrap; line-height: 1.5; max-width: 212px; text-align: start;"><span class="nodeLabel"><p>updated_date</p></span></div></foreignObject></g><g class="label attribute-keys" transform="translate(107.5625, 116.25)" style=""><foreignObject width="0" height="0"><div xmlns="http://www.w3.org/1999/xhtml" style="display: table-cell; white-space: nowrap; line-height: 1.5; max-width: 100px; text-align: start;"><span class="nodeLabel"></span></div></foreignObject></g><g class="label attribute-comment" transform="translate(107.5625, 116.25)" style=""><foreignObject width="0" height="0"><div xmlns="http://www.w3.org/1999/xhtml" style="display: table-cell; white-space: nowrap; line-height: 1.5; max-width: 100px; text-align: start;"><span class="nodeLabel"></span></div></foreignObject></g><g class="label attribute-type" transform="translate(-82.5625, 159)" style=""><foreignObject width="40.375" height="24"><div xmlns="http://www.w3.org/1999/xhtml" style="display: table-cell; white-space: nowrap; line-height: 1.5; max-width: 149px; text-align: start;"><span class="nodeLabel"><p>string</p></span></div></foreignObject></g><g class="label attribute-name" transform="translate(-17.1875, 159)" style=""><foreignObject width="87.734375" height="24"><div xmlns="http://www.w3.org/1999/xhtml" style="display: table-cell; white-space: nowrap; line-height: 1.5; max-width: 199px; text-align: start;"><span class="nodeLabel"><p>timeline_url</p></span></div></foreignObject></g><g class="label attribute-keys" transform="translate(107.5625, 159)" style=""><foreignObject width="0" height="0"><div xmlns="http://www.w3.org/1999/xhtml" style="display: table-cell; white-space: nowrap; line-height: 1.5; max-width: 100px; text-align: start;"><span class="nodeLabel"></span></div></foreignObject></g><g class="label attribute-comment" transform="translate(107.5625, 159)" style=""><foreignObject width="0" height="0"><div xmlns="http://www.w3.org/1999/xhtml" style="display: table-cell; white-space: nowrap; line-height: 1.5; max-width: 100px; text-align: start;"><span class="nodeLabel"></span></div></foreignObject></g><g class="divider"><path d="M-95.0625 -149.625 C-22.795681809743826 -149.625, 49.47113638051235 -149.625, 95.0625 -149.625 M-95.0625 -149.625 C-22.9338086750068 -149.625, 49.1948826499864 -149.625, 95.0625 -149.625" stroke="#ccc" stroke-width="1.3" fill="none" stroke-dasharray="0 0"></path></g><g class="divider"><path d="M-29.6875 -149.625 C-29.6875 -28.8351174932658, -29.6875 91.9547650134684, -29.6875 192.375 M-29.6875 -149.625 C-29.6875 -20.437830291174038, -29.6875 108.74933941765192, -29.6875 192.375" stroke="#ccc" stroke-width="1.3" fill="none" stroke-dasharray="0 0"></path></g><g class="divider"><path d="M-95.0625 -149.625 C-37.61692200206402 -149.625, 19.828655995871955 -149.625, 95.0625 -149.625 M-95.0625 -149.625 C-19.89354638604874 -149.625, 55.27540722790252 -149.625, 95.0625 -149.625" stroke="#ccc" stroke-width="1.3" fill="none" stroke-dasharray="0 0"></path></g></g><g class="node default" id="entity-EVENT-2" transform="translate(411.640625, 765.75)"><g style=""><path d="M-85.765625 -85.5 L85.765625 -85.5 L85.765625 85.5 L-85.765625 85.5" stroke="none" stroke-width="0" fill="#1f2020"></path><path d="M-85.765625 -85.5 C-24.242758954669824 -85.5, 37.28010709066035 -85.5, 85.765625 -85.5 M-85.765625 -85.5 C-48.42763293120547 -85.5, -11.089640862410945 -85.5, 85.765625 -85.5 M85.765625 -85.5 C85.765625 -32.29529184744306, 85.765625 20.90941630511388, 85.765625 85.5 M85.765625 -85.5 C85.765625 -42.33894191384662, 85.765625 0.8221161723067638, 85.765625 85.5 M85.765625 85.5 C28.945606628273822 85.5, -27.874411743452356 85.5, -85.765625 85.5 M85.765625 85.5 C40.05325303942888 85.5, -5.6591189211422375 85.5, -85.765625 85.5 M-85.765625 85.5 C-85.765625 19.232217470874616, -85.765625 -47.03556505825077, -85.765625 -85.5 M-85.765625 85.5 C-85.765625 48.703388097122925, -85.765625 11.90677619424585, -85.765625 -85.5" stroke="#ccc" stroke-width="1.3" fill="none" stroke-dasharray="0 0"></path></g><g style="" class="row-rect-odd"><path d="M-85.765625 -42.75 L85.765625 -42.75 L85.765625 0 L-85.765625 0" stroke="none" stroke-width="0" fill="hsl(180, 1.5873015873%, 17.3529411765%)"></path><path d="M-85.765625 -42.75 C-31.791702013990488 -42.75, 22.182220972019024 -42.75, 85.765625 -42.75 M-85.765625 -42.75 C-25.11722008915754 -42.75, 35.53118482168492 -42.75, 85.765625 -42.75 M85.765625 -42.75 C85.765625 -29.07383209104571, 85.765625 -15.397664182091422, 85.765625 0 M85.765625 -42.75 C85.765625 -33.13016413792651, 85.765625 -23.51032827585302, 85.765625 0 M85.765625 0 C38.083832257458404 0, -9.597960485083192 0, -85.765625 0 M85.765625 0 C24.76740181574796 0, -36.23082136850408 0, -85.765625 0 M-85.765625 0 C-85.765625 -13.800115549053704, -85.765625 -27.600231098107407, -85.765625 -42.75 M-85.765625 0 C-85.765625 -11.599523530120798, -85.765625 -23.199047060241597, -85.765625 -42.75" stroke="#ccc" stroke-width="1.3" fill="none" stroke-dasharray="0 0"></path></g><g style="" class="row-rect-even"><path d="M-85.765625 0 L85.765625 0 L85.765625 42.75 L-85.765625 42.75" stroke="none" stroke-width="0" fill="hsl(180, 1.5873015873%, 2.3529411765%)"></path><path d="M-85.765625 0 C-46.46465890361331 0, -7.163692807226624 0, 85.765625 0 M-85.765625 0 C-20.408642069573133 0, 44.94834086085373 0, 85.765625 0 M85.765625 0 C85.765625 13.952780789395788, 85.765625 27.905561578791577, 85.765625 42.75 M85.765625 0 C85.765625 11.94294012200083, 85.765625 23.88588024400166, 85.765625 42.75 M85.765625 42.75 C24.841243412963905 42.75, -36.08313817407219 42.75, -85.765625 42.75 M85.765625 42.75 C48.17712935426884 42.75, 10.588633708537685 42.75, -85.765625 42.75 M-85.765625 42.75 C-85.765625 32.802246963662526, -85.765625 22.854493927325056, -85.765625 0 M-85.765625 42.75 C-85.765625 27.44214572946765, -85.765625 12.134291458935301, -85.765625 0" stroke="#ccc" stroke-width="1.3" fill="none" stroke-dasharray="0 0"></path></g><g style="" class="row-rect-odd"><path d="M-85.765625 42.75 L85.765625 42.75 L85.765625 85.5 L-85.765625 85.5" stroke="none" stroke-width="0" fill="hsl(180, 1.5873015873%, 17.3529411765%)"></path><path d="M-85.765625 42.75 C-26.676782866504524 42.75, 32.41205926699095 42.75, 85.765625 42.75 M-85.765625 42.75 C-20.17289162180468 42.75, 45.41984175639064 42.75, 85.765625 42.75 M85.765625 42.75 C85.765625 57.08230789815334, 85.765625 71.41461579630668, 85.765625 85.5 M85.765625 42.75 C85.765625 55.94386874691062, 85.765625 69.13773749382123, 85.765625 85.5 M85.765625 85.5 C43.27765238263363 85.5, 0.789679765267266 85.5, -85.765625 85.5 M85.765625 85.5 C36.870924099744926 85.5, -12.023776800510149 85.5, -85.765625 85.5 M-85.765625 85.5 C-85.765625 71.1532254060529, -85.765625 56.806450812105794, -85.765625 42.75 M-85.765625 85.5 C-85.765625 76.31138014885393, -85.765625 67.12276029770786, -85.765625 42.75" stroke="#ccc" stroke-width="1.3" fill="none" stroke-dasharray="0 0"></path></g><g class="label name" transform="translate(-23.0234375, -76.125)" style=""><foreignObject width="46.046875" height="24"><div xmlns="http://www.w3.org/1999/xhtml" style="display: table-cell; white-space: nowrap; line-height: 1.5; max-width: 148px; text-align: start;"><span class="nodeLabel"><p>EVENT</p></span></div></foreignObject></g><g class="label attribute-type" transform="translate(-73.265625, -33.375)" style=""><foreignObject width="40.375" height="24"><div xmlns="http://www.w3.org/1999/xhtml" style="display: table-cell; white-space: nowrap; line-height: 1.5; max-width: 149px; text-align: start;"><span class="nodeLabel"><p>string</p></span></div></foreignObject></g><g class="label attribute-name" transform="translate(-7.890625, -33.375)" style=""><foreignObject width="80.640625" height="24"><div xmlns="http://www.w3.org/1999/xhtml" style="display: table-cell; white-space: nowrap; line-height: 1.5; max-width: 193px; text-align: start;"><span class="nodeLabel"><p>event_type</p></span></div></foreignObject></g><g class="label attribute-keys" transform="translate(98.265625, -33.375)" style=""><foreignObject width="0" height="0"><div xmlns="http://www.w3.org/1999/xhtml" style="display: table-cell; white-space: nowrap; line-height: 1.5; max-width: 100px; text-align: start;"><span class="nodeLabel"></span></div></foreignObject></g><g class="label attribute-comment" transform="translate(98.265625, -33.375)" style=""><foreignObject width="0" height="0"><div xmlns="http://www.w3.org/1999/xhtml" style="display: table-cell; white-space: nowrap; line-height: 1.5; max-width: 100px; text-align: start;"><span class="nodeLabel"></span></div></foreignObject></g><g class="label attribute-type" transform="translate(-73.265625, 9.375)" style=""><foreignObject width="32.390625" height="24"><div xmlns="http://www.w3.org/1999/xhtml" style="display: table-cell; white-space: nowrap; line-height: 1.5; max-width: 137px; text-align: start;"><span class="nodeLabel"><p>date</p></span></div></foreignObject></g><g class="label attribute-name" transform="translate(-7.890625, 9.375)" style=""><foreignObject width="81.15625" height="24"><div xmlns="http://www.w3.org/1999/xhtml" style="display: table-cell; white-space: nowrap; line-height: 1.5; max-width: 193px; text-align: start;"><span class="nodeLabel"><p>event_date</p></span></div></foreignObject></g><g class="label attribute-keys" transform="translate(98.265625, 9.375)" style=""><foreignObject width="0" height="0"><div xmlns="http://www.w3.org/1999/xhtml" style="display: table-cell; white-space: nowrap; line-height: 1.5; max-width: 100px; text-align: start;"><span class="nodeLabel"></span></div></foreignObject></g><g class="label attribute-comment" transform="translate(98.265625, 9.375)" style=""><foreignObject width="0" height="0"><div xmlns="http://www.w3.org/1999/xhtml" style="display: table-cell; white-space: nowrap; line-height: 1.5; max-width: 100px; text-align: start;"><span class="nodeLabel"></span></div></foreignObject></g><g class="label attribute-type" transform="translate(-73.265625, 52.125)" style=""><foreignObject width="40.375" height="24"><div xmlns="http://www.w3.org/1999/xhtml" style="display: table-cell; white-space: nowrap; line-height: 1.5; max-width: 149px; text-align: start;"><span class="nodeLabel"><p>string</p></span></div></foreignObject></g><g class="label attribute-name" transform="translate(-7.890625, 52.125)" style=""><foreignObject width="66.890625" height="24"><div xmlns="http://www.w3.org/1999/xhtml" style="display: table-cell; white-space: nowrap; line-height: 1.5; max-width: 172px; text-align: start;"><span class="nodeLabel"><p>comment</p></span></div></foreignObject></g><g class="label attribute-keys" transform="translate(98.265625, 52.125)" style=""><foreignObject width="0" height="0"><div xmlns="http://www.w3.org/1999/xhtml" style="display: table-cell; white-space: nowrap; line-height: 1.5; max-width: 100px; text-align: start;"><span class="nodeLabel"></span></div></foreignObject></g><g class="label attribute-comment" transform="translate(98.265625, 52.125)" style=""><foreignObject width="0" height="0"><div xmlns="http://www.w3.org/1999/xhtml" style="display: table-cell; white-space: nowrap; line-height: 1.5; max-width: 100px; text-align: start;"><span class="nodeLabel"></span></div></foreignObject></g><g class="divider"><path d="M-85.765625 -42.75 C-34.92247003889352 -42.75, 15.920684922212956 -42.75, 85.765625 -42.75 M-85.765625 -42.75 C-39.185636058109814 -42.75, 7.394352883780371 -42.75, 85.765625 -42.75" stroke="#ccc" stroke-width="1.3" fill="none" stroke-dasharray="0 0"></path></g><g class="divider"><path d="M-20.390625 -42.75 C-20.390625 -12.264193417315479, -20.390625 18.221613165369043, -20.390625 85.5 M-20.390625 -42.75 C-20.390625 -7.946873236789628, -20.390625 26.856253526420744, -20.390625 85.5" stroke="#ccc" stroke-width="1.3" fill="none" stroke-dasharray="0 0"></path></g><g class="divider"><path d="M-85.765625 -42.75 C-47.49085756304778 -42.75, -9.216090126095565 -42.75, 85.765625 -42.75 M-85.765625 -42.75 C-32.02878573894645 -42.75, 21.708053522107093 -42.75, 85.765625 -42.75" stroke="#ccc" stroke-width="1.3" fill="none" stroke-dasharray="0 0"></path></g></g><g class="node default" id="entity-LABEL-3" transform="translate(96.9375, 765.75)"><g style=""><path d="M-88.9375 -42.75 L88.9375 -42.75 L88.9375 42.75 L-88.9375 42.75" stroke="none" stroke-width="0" fill="#1f2020"></path><path d="M-88.9375 -42.75 C-37.58423943891913 -42.75, 13.769021122161746 -42.75, 88.9375 -42.75 M-88.9375 -42.75 C-30.816385992144134 -42.75, 27.30472801571173 -42.75, 88.9375 -42.75 M88.9375 -42.75 C88.9375 -14.667281246737051, 88.9375 13.415437506525898, 88.9375 42.75 M88.9375 -42.75 C88.9375 -18.29306497857933, 88.9375 6.163870042841339, 88.9375 42.75 M88.9375 42.75 C18.600746603283653 42.75, -51.73600679343269 42.75, -88.9375 42.75 M88.9375 42.75 C20.23448113621859 42.75, -48.46853772756282 42.75, -88.9375 42.75 M-88.9375 42.75 C-88.9375 9.397170854565921, -88.9375 -23.955658290868158, -88.9375 -42.75 M-88.9375 42.75 C-88.9375 20.102765936301083, -88.9375 -2.5444681273978347, -88.9375 -42.75" stroke="#ccc" stroke-width="1.3" fill="none" stroke-dasharray="0 0"></path></g><g style="" class="row-rect-odd"><path d="M-88.9375 0 L88.9375 0 L88.9375 42.75 L-88.9375 42.75" stroke="none" stroke-width="0" fill="hsl(180, 1.5873015873%, 17.3529411765%)"></path><path d="M-88.9375 0 C-42.550720817175296 0, 3.836058365649407 0, 88.9375 0 M-88.9375 0 C-30.28776038256394 0, 28.361979234872123 0, 88.9375 0 M88.9375 0 C88.9375 13.233018378769593, 88.9375 26.466036757539186, 88.9375 42.75 M88.9375 0 C88.9375 13.436969793516822, 88.9375 26.873939587033643, 88.9375 42.75 M88.9375 42.75 C19.144012207786517 42.75, -50.649475584426966 42.75, -88.9375 42.75 M88.9375 42.75 C47.43345683149554 42.75, 5.929413662991081 42.75, -88.9375 42.75 M-88.9375 42.75 C-88.9375 33.16087001531572, -88.9375 23.57174003063145, -88.9375 0 M-88.9375 42.75 C-88.9375 32.955730382382484, -88.9375 23.161460764764968, -88.9375 0" stroke="#ccc" stroke-width="1.3" fill="none" stroke-dasharray="0 0"></path></g><g class="label name" transform="translate(-21.6328125, -33.375)" style=""><foreignObject width="43.265625" height="24"><div xmlns="http://www.w3.org/1999/xhtml" style="display: table-cell; white-space: nowrap; line-height: 1.5; max-width: 146px; text-align: start;"><span class="nodeLabel"><p>LABEL</p></span></div></foreignObject></g><g class="label attribute-type" transform="translate(-76.4375, 9.375)" style=""><foreignObject width="52.125" height="24"><div xmlns="http://www.w3.org/1999/xhtml" style="display: table-cell; white-space: nowrap; line-height: 1.5; max-width: 163px; text-align: start;"><span class="nodeLabel"><p>string[]</p></span></div></foreignObject></g><g class="label attribute-name" transform="translate(0.6875, 9.375)" style=""><foreignObject width="75.75" height="24"><div xmlns="http://www.w3.org/1999/xhtml" style="display: table-cell; white-space: nowrap; line-height: 1.5; max-width: 186px; text-align: start;"><span class="nodeLabel"><p>label_type</p></span></div></foreignObject></g><g class="label attribute-keys" transform="translate(101.4375, 9.375)" style=""><foreignObject width="0" height="0"><div xmlns="http://www.w3.org/1999/xhtml" style="display: table-cell; white-space: nowrap; line-height: 1.5; max-width: 100px; text-align: start;"><span class="nodeLabel"></span></div></foreignObject></g><g class="label attribute-comment" transform="translate(101.4375, 9.375)" style=""><foreignObject width="0" height="0"><div xmlns="http://www.w3.org/1999/xhtml" style="display: table-cell; white-space: nowrap; line-height: 1.5; max-width: 100px; text-align: start;"><span class="nodeLabel"></span></div></foreignObject></g><g class="divider"><path d="M-88.9375 0 C-35.69025403967679 0, 17.556991920646425 0, 88.9375 0 M-88.9375 0 C-27.670949545482877 0, 33.595600909034246 0, 88.9375 0" stroke="#ccc" stroke-width="1.3" fill="none" stroke-dasharray="0 0"></path></g><g class="divider"><path d="M-11.8125 0 C-11.8125 14.007894916510558, -11.8125 28.015789833021117, -11.8125 42.75 M-11.8125 0 C-11.8125 14.551914165790688, -11.8125 29.103828331581376, -11.8125 42.75" stroke="#ccc" stroke-width="1.3" fill="none" stroke-dasharray="0 0"></path></g><g class="divider"><path d="M-88.9375 0 C-49.056376054743936 0, -9.175252109487872 0, 88.9375 0 M-88.9375 0 C-46.609425814203114 0, -4.281351628406227 0, 88.9375 0" stroke="#ccc" stroke-width="1.3" fill="none" stroke-dasharray="0 0"></path></g></g></g></g></g></g></svg>