<?xml version="1.0" encoding="UTF-8"?>
<?xml-stylesheet href="https://cdnjs.cloudflare.com/ajax/libs/font-awesome/6.7.2/css/all.min.css" type="text/css"?>
<svg id="graph-3" width="100%" xmlns="http://www.w3.org/2000/svg" class="erDiagram" style="overflow: hidden; max-width: 100%; touch-action: none; -webkit-user-select: none; -webkit-user-drag: none; background-color: rgb(2, 8, 23);" role="graphics-document document" aria-roledescription="er" height="100%" xmlns:xlink="http://www.w3.org/1999/xlink" xmlns:ev="http://www.w3.org/2001/xml-events"><g id="viewport-20260409192722629" class="svg-pan-zoom_viewport" transform="matrix(0.4739441318778337,0,0,0.4739441318778337,270.7420972854922,58.620733362742996)" style="transform: matrix(0.473944, 0, 0, 0.473944, 270.742097, 58.620733);"><style>#graph-3{font-family:"trebuchet ms",verdana,arial,sans-serif;font-size:16px;fill:#ccc;}@keyframes edge-animation-frame{from{stroke-dashoffset:0;}}@keyframes dash{to{stroke-dashoffset:0;}}#graph-3 .edge-animation-slow{stroke-dasharray:9,5!important;stroke-dashoffset:900;animation:dash 50s linear infinite;stroke-linecap:round;}#graph-3 .edge-animation-fast{stroke-dasharray:9,5!important;stroke-dashoffset:900;animation:dash 20s linear infinite;stroke-linecap:round;}#graph-3 .error-icon{fill:#a44141;}#graph-3 .error-text{fill:#ddd;stroke:#ddd;}#graph-3 .edge-thickness-normal{stroke-width:1px;}#graph-3 .edge-thickness-thick{stroke-width:3.5px;}#graph-3 .edge-pattern-solid{stroke-dasharray:0;}#graph-3 .edge-thickness-invisible{stroke-width:0;fill:none;}#graph-3 .edge-pattern-dashed{stroke-dasharray:3;}#graph-3 .edge-pattern-dotted{stroke-dasharray:2;}#graph-3 .marker{fill:lightgrey;stroke:lightgrey;}#graph-3 .marker.cross{stroke:lightgrey;}#graph-3 svg{font-family:"trebuchet ms",verdana,arial,sans-serif;font-size:16px;}#graph-3 p{margin:0;}#graph-3 .entityBox{fill:#1f2020;stroke:#ccc;}#graph-3 .relationshipLabelBox{fill:hsl(20, 1.5873015873%, 12.3529411765%);opacity:0.7;background-color:hsl(20, 1.5873015873%, 12.3529411765%);}#graph-3 .relationshipLabelBox rect{opacity:0.5;}#graph-3 .labelBkg{background-color:rgba(32.0000000001, 31.3333333334, 31.0000000001, 0.5);}#graph-3 .edgeLabel .label{fill:#ccc;font-size:14px;}#graph-3 .label{font-family:"trebuchet ms",verdana,arial,sans-serif;color:#ccc;}#graph-3 .edge-pattern-dashed{stroke-dasharray:8,8;}#graph-3 .node rect,#graph-3 .node circle,#graph-3 .node ellipse,#graph-3 .node polygon{fill:#1f2020;stroke:#ccc;stroke-width:1px;}#graph-3 .relationshipLine{stroke:lightgrey;stroke-width:1;fill:none;}#graph-3 .marker{fill:none!important;stroke:lightgrey!important;stroke-width:1;}#graph-3 .edgeLabel{background-color:hsl(0, 0%, 34.4117647059%);}#graph-3 .edgeLabel .label rect{fill:hsl(0, 0%, 34.4117647059%);}#graph-3 .edgeLabel .label text{fill:#ccc;}#graph-3 :root{--mermaid-font-family:"trebuchet ms",verdana,arial,sans-serif;}</style><g><defs><marker id="graph-3_er-onlyOneStart" class="marker onlyOne er" refX="0" refY="9" markerWidth="18" markerHeight="18" orient="auto"><path d="M9,0 L9,18 M15,0 L15,18"></path></marker></defs><defs><marker id="graph-3_er-onlyOneEnd" class="marker onlyOne er" refX="18" refY="9" markerWidth="18" markerHeight="18" orient="auto"><path d="M3,0 L3,18 M9,0 L9,18"></path></marker></defs><defs><marker id="graph-3_er-zeroOrOneStart" class="marker zeroOrOne er" refX="0" refY="9" markerWidth="30" markerHeight="18" orient="auto"><circle fill="white" cx="21" cy="9" r="6"></circle><path d="M9,0 L9,18"></path></marker></defs><defs><marker id="graph-3_er-zeroOrOneEnd" class="marker zeroOrOne er" refX="30" refY="9" markerWidth="30" markerHeight="18" orient="auto"><circle fill="white" cx="9" cy="9" r="6"></circle><path d="M21,0 L21,18"></path></marker></defs><defs><marker id="graph-3_er-oneOrMoreStart" class="marker oneOrMore er" refX="18" refY="18" markerWidth="45" markerHeight="36" orient="auto"><path d="M0,18 Q 18,0 36,18 Q 18,36 0,18 M42,9 L42,27"></path></marker></defs><defs><marker id="graph-3_er-oneOrMoreEnd" class="marker oneOrMore er" refX="27" refY="18" markerWidth="45" markerHeight="36" orient="auto"><path d="M3,9 L3,27 M9,18 Q27,0 45,18 Q27,36 9,18"></path></marker></defs><defs><marker id="graph-3_er-zeroOrMoreStart" class="marker zeroOrMore er" refX="18" refY="18" markerWidth="57" markerHeight="36" orient="auto"><circle fill="white" cx="48" cy="18" r="6"></circle><path d="M0,18 Q18,0 36,18 Q18,36 0,18"></path></marker></defs><defs><marker id="graph-3_er-zeroOrMoreEnd" class="marker zeroOrMore er" refX="39" refY="18" markerWidth="57" markerHeight="36" orient="auto"><circle fill="white" cx="9" cy="18" r="6"></circle><path d="M21,18 Q39,0 57,18 Q39,36 21,18"></path></marker></defs><g class="root"><g class="clusters"></g><g class="edgePaths"><path d="M216.004,93.327L199.333,101.773C182.661,110.218,149.319,127.109,134.002,143.971C118.685,160.833,121.393,177.667,122.747,186.083L124.101,194.5" id="id_entity-USER-0_entity-ISSUE-1_0" class="edge-thickness-normal edge-pattern-solid relationshipLine" style="undefined;;;undefined" data-edge="true" data-et="edge" data-id="id_entity-USER-0_entity-ISSUE-1_0" data-points="W3sieCI6MjE2LjAwMzkwNjI1LCJ5Ijo5My4zMjcyMzQwNDcwNjgzMn0seyJ4IjoxMTUuOTc2NTYyNSwieSI6MTQ0fSx7IngiOjEyNC4xMDExMDQxMjM3Nzc2NiwieSI6MTk0LjV9XQ==" marker-start="url(#graph-3_er-onlyOneStart)" marker-end="url(#graph-3_er-zeroOrMoreEnd)"></path><path d="M250.113,227.645L258.436,213.704C266.759,199.764,283.405,171.882,291.728,149.524C300.051,127.167,300.051,110.333,300.051,101.917L300.051,93.5" id="id_entity-ISSUE-1_entity-USER-0_1" class="edge-thickness-normal edge-pattern-solid relationshipLine" style="undefined;;;undefined" data-edge="true" data-et="edge" data-id="id_entity-ISSUE-1_entity-USER-0_1" data-points="W3sieCI6MjUwLjExMzI4MTI1LCJ5IjoyMjcuNjQ1MzEyNX0seyJ4IjozMDAuMDUwNzgxMjUsInkiOjE0NH0seyJ4IjozMDAuMDUwNzgxMjUsInkiOjkzLjV9XQ==" marker-start="url(#graph-3_er-zeroOrMoreStart)" marker-end="url(#graph-3_er-zeroOrMoreEnd)"></path><path d="M109.021,579.25L107.007,587.667C104.993,596.083,100.965,612.917,98.951,636.875C96.938,660.833,96.938,691.917,96.938,707.458L96.938,723" id="id_entity-ISSUE-1_entity-LABEL-3_2" class="edge-thickness-normal edge-pattern-solid relationshipLine" style="undefined;;;undefined" data-edge="true" data-et="edge" data-id="id_entity-ISSUE-1_entity-LABEL-3_2" data-points="W3sieCI6MTA5LjAyMDc1NTU5NzAxNDkzLCJ5Ijo1NzkuMjV9LHsieCI6OTYuOTM3NSwieSI6NjI5Ljc1fSx7IngiOjk2LjkzNzUsInkiOjcyM31d" marker-start="url(#graph-3_er-zeroOrMoreStart)" marker-end="url(#graph-3_er-zeroOrMoreEnd)"></path><path d="M250.113,533.606L260.495,549.63C270.876,565.654,291.639,597.702,308.162,622.143C324.686,646.583,336.969,663.417,343.11,671.833L349.252,680.25" id="id_entity-ISSUE-1_entity-EVENT-2_3" class="edge-thickness-normal edge-pattern-solid relationshipLine" style="undefined;;;undefined" data-edge="true" data-et="edge" data-id="id_entity-ISSUE-1_entity-EVENT-2_3" data-points="W3sieCI6MjUwLjExMzI4MTI1LCJ5Ijo1MzMuNjA1Njk4NTc1MDQ2fSx7IngiOjMxMi40MDIzNDM3NSwieSI6NjI5Ljc1fSx7IngiOjM0OS4yNTE4NTI1OTY1MDc0LCJ5Ijo2ODAuMjV9XQ==" marker-start="url(#graph-3_er-onlyOneStart)" marker-end="url(#graph-3_er-zeroOrMoreEnd)"></path><path d="M358.162,93.5L369.603,101.917C381.044,110.333,403.926,127.167,415.368,176.063C426.809,224.958,426.809,305.917,426.809,386.875C426.809,467.833,426.809,548.792,425.87,597.688C424.931,646.583,423.054,663.417,422.115,671.833L421.176,680.25" id="id_entity-USER-0_entity-EVENT-2_4" class="edge-thickness-normal edge-pattern-solid relationshipLine" style="undefined;;;undefined" data-edge="true" data-et="edge" data-id="id_entity-USER-0_entity-EVENT-2_4" data-points="W3sieCI6MzU4LjE2MjI3MTY5OTA2MTY1LCJ5Ijo5My41fSx7IngiOjQyNi44MDg1OTM3NSwieSI6MTQ0fSx7IngiOjQyNi44MDg1OTM3NSwieSI6Mzg2Ljg3NX0seyJ4Ijo0MjYuODA4NTkzNzUsInkiOjYyOS43NX0seyJ4Ijo0MjEuMTc2MzcwMDU5NzQyNiwieSI6NjgwLjI1fV0=" marker-start="url(#graph-3_er-onlyOneStart)" marker-end="url(#graph-3_er-zeroOrMoreEnd)"></path></g><g class="edgeLabels"><g class="edgeLabel" transform="translate(115.9765625, 144)"><g class="label" data-id="id_entity-USER-0_entity-ISSUE-1_0" transform="translate(-23.109375, -10.5)"><foreignObject width="46.21875" height="21"><div xmlns="http://www.w3.org/1999/xhtml" class="labelBkg" style="display: table-cell; white-space: nowrap; line-height: 1.5; max-width: 200px; text-align: center;"><span class="edgeLabel"><p>creates</p></span></div></foreignObject></g></g><g class="edgeLabel" transform="translate(300.05078125, 144)"><g class="label" data-id="id_entity-ISSUE-1_entity-USER-0_1" transform="translate(-35.0390625, -10.5)"><foreignObject width="70.078125" height="21"><div xmlns="http://www.w3.org/1999/xhtml" class="labelBkg" style="display: table-cell; white-space: nowrap; line-height: 1.5; max-width: 200px; text-align: center;"><span class="edgeLabel"><p>assigned to</p></span></div></foreignObject></g></g><g class="edgeLabel" transform="translate(96.9375, 629.75)"><g class="label" data-id="id_entity-ISSUE-1_entity-LABEL-3_2" transform="translate(-10.3359375, -10.5)"><foreignObject width="20.671875" height="21"><div xmlns="http://www.w3.org/1999/xhtml" class="labelBkg" style="display: table-cell; white-space: nowrap; line-height: 1.5; max-width: 200px; text-align: center;"><span class="edgeLabel"><p>has</p></span></div></foreignObject></g></g><g class="edgeLabel" transform="translate(298.25352, 607.91103)"><g class="label" data-id="id_entity-ISSUE-1_entity-EVENT-2_3" transform="translate(-10.3359375, -10.5)"><foreignObject width="20.671875" height="21"><div xmlns="http://www.w3.org/1999/xhtml" class="labelBkg" style="display: table-cell; white-space: nowrap; line-height: 1.5; max-width: 200px; text-align: center;"><span class="edgeLabel"><p>has</p></span></div></foreignObject></g></g><g class="edgeLabel" transform="translate(426.80859375, 386.875)"><g class="label" data-id="id_entity-USER-0_entity-EVENT-2_4" transform="translate(-23.4140625, -10.5)"><foreignObject width="46.828125" height="21"><div xmlns="http://www.w3.org/1999/xhtml" class="labelBkg" style="display: table-cell; white-space: nowrap; line-height: 1.5; max-width: 200px; text-align: center;"><span class="edgeLabel"><p>authors</p></span></div></foreignObject></g></g></g><g class="nodes"><g class="node default" id="entity-USER-0" transform="translate(300.05078125, 50.75)"><g style=""><path d="M-84.046875 -42.75 L84.046875 -42.75 L84.046875 42.75 L-84.046875 42.75" stroke="none" stroke-width="0" fill="#1f2020"></path><path d="M-84.046875 -42.75 C-43.07618880556724 -42.75, -2.105502611134483 -42.75, 84.046875 -42.75 M-84.046875 -42.75 C-47.7223525517328 -42.75, -11.397830103465594 -42.75, 84.046875 -42.75 M84.046875 -42.75 C84.046875 -20.91996484761525, 84.046875 0.9100703047694978, 84.046875 42.75 M84.046875 -42.75 C84.046875 -19.31821157595414, 84.046875 4.113576848091718, 84.046875 42.75 M84.046875 42.75 C24.867163566900693 42.75, -34.312547866198614 42.75, -84.046875 42.75 M84.046875 42.75 C40.105545939687914 42.75, -3.8357831206241713 42.75, -84.046875 42.75 M-84.046875 42.75 C-84.046875 13.869509754988655, -84.046875 -15.010980490022689, -84.046875 -42.75 M-84.046875 42.75 C-84.046875 19.184947062193825, -84.046875 -4.380105875612351, -84.046875 -42.75" stroke="#ccc" stroke-width="1.3" fill="none" stroke-dasharray="0 0"></path></g><g style="" class="row-rect-odd"><path d="M-84.046875 0 L84.046875 0 L84.046875 42.75 L-84.046875 42.75" stroke="none" stroke-width="0" fill="hsl(180, 1.5873015873%, 17.3529411765%)"></path><path d="M-84.046875 0 C-44.49025011306197 0, -4.933625226123937 0, 84.046875 0 M-84.046875 0 C-31.753991333660842 0, 20.538892332678316 0, 84.046875 0 M84.046875 0 C84.046875 10.973311189276407, 84.046875 21.946622378552814, 84.046875 42.75 M84.046875 0 C84.046875 11.407289851902926, 84.046875 22.81457970380585, 84.046875 42.75 M84.046875 42.75 C17.625061921270827 42.75, -48.796751157458345 42.75, -84.046875 42.75 M84.046875 42.75 C23.83822281923281 42.75, -36.37042936153438 42.75, -84.046875 42.75 M-84.046875 42.75 C-84.046875 28.960560963235338, -84.046875 15.171121926470676, -84.046875 0 M-84.046875 42.75 C-84.046875 29.614183605675834, -84.046875 16.47836721135167, -84.046875 0" stroke="#ccc" stroke-width="1.3" fill="none" stroke-dasharray="0 0"></path></g><g class="label name" transform="translate(-17.9765625, -33.375)" style=""><foreignObject width="35.953125" height="24"><div xmlns="http://www.w3.org/1999/xhtml" style="display: table-cell; white-space: nowrap; line-height: 1.5; max-width: 138px; text-align: start;"><span class="nodeLabel"><p>USER</p></span></div></foreignObject></g><g class="label attribute-type" transform="translate(-71.546875, 9.375)" style=""><foreignObject width="40.375" height="24"><div xmlns="http://www.w3.org/1999/xhtml" style="display: table-cell; white-space: nowrap; line-height: 1.5; max-width: 149px; text-align: start;"><span class="nodeLabel"><p>string</p></span></div></foreignObject></g><g class="label attribute-name" transform="translate(-6.171875, 9.375)" style=""><foreignObject width="77.71875" height="24"><div xmlns="http://www.w3.org/1999/xhtml" style="display: table-cell; white-space: nowrap; line-height: 1.5; max-width: 187px; text-align: start;"><span class="nodeLabel"><p>user_name</p></span></div></foreignObject></g><g class="label attribute-keys" transform="translate(96.546875, 9.375)" style=""><foreignObject width="0" height="0"><div xmlns="http://www.w3.org/1999/xhtml" style="display: table-cell; white-space: nowrap; line-height: 1.5; max-width: 100px; text-align: start;"><span class="nodeLabel"></span></div></foreignObject></g><g class="label attribute-comment" transform="translate(96.546875, 9.375)" style=""><foreignObject width="0" height="0"><div xmlns="http://www.w3.org/1999/xhtml" style="display: table-cell; white-space: nowrap; line-height: 1.5; max-width: 100px; text-align: start;"><span class="nodeLabel"></span></div></foreignObject></g><g class="divider"><path d="M-84.046875 0 C-37.75138264254339 0, 8.544109714913219 0, 84.046875 0 M-84.046875 0 C-42.28371852721757 0, -0.5205620544351461 0, 84.046875 0" stroke="#ccc" stroke-width="1.3" fill="none" stroke-dasharray="0 0"></path></g><g class="divider"><path d="M-18.671875 0 C-18.671875 11.704080323499776, -18.671875 23.40816064699955, -18.671875 42.75 M-18.671875 0 C-18.671875 16.265442412810216, -18.671875 32.53088482562043, -18.671875 42.75" stroke="#ccc" stroke-width="1.3" fill="none" stroke-dasharray="0 0"></path></g><g class="divider"><path d="M-84.046875 0 C-49.149099771278756 0, -14.251324542557512 0, 84.046875 0 M-84.046875 0 C-47.10597472603864 0, -10.165074452077278 0, 84.046875 0" stroke="#ccc" stroke-width="1.3" fill="none" stroke-dasharray="0 0"></path></g></g><g class="node default" id="entity-ISSUE-1" transform="translate(155.05078125, 386.875)"><g style=""><path d="M-95.0625 -192.375 L95.0625 -192.375 L95.0625 192.375 L-95.0625 192.375" stroke="none" stroke-width="0" fill="#1f2020"></path><path d="M-95.0625 -192.375 C-22.118159108968428 -192.375, 50.826181782063145 -192.375, 95.0625 -192.375 M-95.0625 -192.375 C-35.1198232477947 -192.375, 24.822853504410602 -192.375, 95.0625 -192.375 M95.0625 -192.375 C95.0625 -112.14493232426942, 95.0625 -31.91486464853884, 95.0625 192.375 M95.0625 -192.375 C95.0625 -42.38622153651423, 95.0625 107.60255692697154, 95.0625 192.375 M95.0625 192.375 C26.225702508055903 192.375, -42.611094983888194 192.375, -95.0625 192.375 M95.0625 192.375 C35.280625353007395 192.375, -24.50124929398521 192.375, -95.0625 192.375 M-95.0625 192.375 C-95.0625 54.52074235729506, -95.0625 -83.33351528540987, -95.0625 -192.375 M-95.0625 192.375 C-95.0625 57.01795471528226, -95.0625 -78.33909056943548, -95.0625 -192.375" stroke="#ccc" stroke-width="1.3" fill="none" stroke-dasharray="0 0"></path></g><g style="" class="row-rect-odd"><path d="M-95.0625 -149.625 L95.0625 -149.625 L95.0625 -106.875 L-95.0625 -106.875" stroke="none" stroke-width="0" fill="hsl(180, 1.5873015873%, 17.3529411765%)"></path><path d="M-95.0625 -149.625 C-34.87584396301746 -149.625, 25.31081207396508 -149.625, 95.0625 -149.625 M-95.0625 -149.625 C-56.831480658388216 -149.625, -18.600461316776432 -149.625, 95.0625 -149.625 M95.0625 -149.625 C95.0625 -137.45778121187166, 95.0625 -125.2905624237433, 95.0625 -106.875 M95.0625 -149.625 C95.0625 -138.35641004468488, 95.0625 -127.08782008936974, 95.0625 -106.875 M95.0625 -106.875 C43.43988170680769 -106.875, -8.182736586384621 -106.875, -95.0625 -106.875 M95.0625 -106.875 C36.180345584150146 -106.875, -22.701808831699708 -106.875, -95.0625 -106.875 M-95.0625 -106.875 C-95.0625 -116.2785475978768, -95.0625 -125.68209519575359, -95.0625 -149.625 M-95.0625 -106.875 C-95.0625 -118.88049487239064, -95.0625 -130.88598974478128, -95.0625 -149.625" stroke="#ccc" stroke-width="1.3" fill="none" stroke-dasharray="0 0"></path></g><g style="" class="row-rect-even"><path d="M-95.0625 -106.875 L95.0625 -106.875 L95.0625 -64.125 L-95.0625 -64.125" stroke="none" stroke-width="0" fill="hsl(180, 1.5873015873%, 2.3529411765%)"></path><path d="M-95.0625 -106.875 C-37.48081171468707 -106.875, 20.100876570625857 -106.875, 95.0625 -106.875 M-95.0625 -106.875 C-47.62388366008163 -106.875, -0.18526732016326264 -106.875, 95.0625 -106.875 M95.0625 -106.875 C95.0625 -96.30981138523167, 95.0625 -85.74462277046334, 95.0625 -64.125 M95.0625 -106.875 C95.0625 -93.15307446515489, 95.0625 -79.43114893030976, 95.0625 -64.125 M95.0625 -64.125 C34.14225070269157 -64.125, -26.77799859461686 -64.125, -95.0625 -64.125 M95.0625 -64.125 C45.650914016262895 -64.125, -3.7606719674742095 -64.125, -95.0625 -64.125 M-95.0625 -64.125 C-95.0625 -79.26172739565042, -95.0625 -94.39845479130086, -95.0625 -106.875 M-95.0625 -64.125 C-95.0625 -76.89457990140359, -95.0625 -89.66415980280718, -95.0625 -106.875" stroke="#ccc" stroke-width="1.3" fill="none" stroke-dasharray="0 0"></path></g><g style="" class="row-rect-odd"><path d="M-95.0625 -64.125 L95.0625 -64.125 L95.0625 -21.375 L-95.0625 -21.375" stroke="none" stroke-width="0" fill="hsl(180, 1.5873015873%, 17.3529411765%)"></path><path d="M-95.0625 -64.125 C-41.458521008068786 -64.125, 12.145457983862428 -64.125, 95.0625 -64.125 M-95.0625 -64.125 C-52.43001285879284 -64.125, -9.797525717585685 -64.125, 95.0625 -64.125 M95.0625 -64.125 C95.0625 -49.37821732175604, 95.0625 -34.63143464351207, 95.0625 -21.375 M95.0625 -64.125 C95.0625 -48.15202798197374, 95.0625 -32.17905596394748, 95.0625 -21.375 M95.0625 -21.375 C48.73258534231326 -21.375, 2.4026706846265142 -21.375, -95.0625 -21.375 M95.0625 -21.375 C24.86210082223755 -21.375, -45.3382983555249 -21.375, -95.0625 -21.375 M-95.0625 -21.375 C-95.0625 -33.452330966632154, -95.0625 -45.52966193326431, -95.0625 -64.125 M-95.0625 -21.375 C-95.0625 -29.984085617875614, -95.0625 -38.59317123575123, -95.0625 -64.125" stroke="#ccc" stroke-width="1.3" fill="none" stroke-dasharray="0 0"></path></g><g style="" class="row-rect-even"><path d="M-95.0625 -21.375 L95.0625 -21.375 L95.0625 21.375 L-95.0625 21.375" stroke="none" stroke-width="0" fill="hsl(180, 1.5873015873%, 2.3529411765%)"></path><path d="M-95.0625 -21.375 C-47.18633565151291 -21.375, 0.6898286969741747 -21.375, 95.0625 -21.375 M-95.0625 -21.375 C-25.23128556817636 -21.375, 44.59992886364728 -21.375, 95.0625 -21.375 M95.0625 -21.375 C95.0625 -12.414166980964854, 95.0625 -3.453333961929708, 95.0625 21.375 M95.0625 -21.375 C95.0625 -7.734008648112111, 95.0625 5.906982703775778, 95.0625 21.375 M95.0625 21.375 C22.26247454723358 21.375, -50.53755090553284 21.375, -95.0625 21.375 M95.0625 21.375 C30.31079683807316 21.375, -34.44090632385368 21.375, -95.0625 21.375 M-95.0625 21.375 C-95.0625 7.8381718968146785, -95.0625 -5.698656206370643, -95.0625 -21.375 M-95.0625 21.375 C-95.0625 10.211607200646156, -95.0625 -0.9517855987076871, -95.0625 -21.375" stroke="#ccc" stroke-width="1.3" fill="none" stroke-dasharray="0 0"></path></g><g style="" class="row-rect-odd"><path d="M-95.0625 21.375 L95.0625 21.375 L95.0625 64.125 L-95.0625 64.125" stroke="none" stroke-width="0" fill="hsl(180, 1.5873015873%, 17.3529411765%)"></path><path d="M-95.0625 21.375 C-51.635212087910666 21.375, -8.207924175821333 21.375, 95.0625 21.375 M-95.0625 21.375 C-55.46696223612845 21.375, -15.871424472256905 21.375, 95.0625 21.375 M95.0625 21.375 C95.0625 30.748409690728305, 95.0625 40.12181938145661, 95.0625 64.125 M95.0625 21.375 C95.0625 37.82624657258647, 95.0625 54.27749314517295, 95.0625 64.125 M95.0625 64.125 C36.92125424954229 64.125, -21.219991500915427 64.125, -95.0625 64.125 M95.0625 64.125 C33.01883633832844 64.125, -29.024827323343118 64.125, -95.0625 64.125 M-95.0625 64.125 C-95.0625 54.24723540744018, -95.0625 44.36947081488036, -95.0625 21.375 M-95.0625 64.125 C-95.0625 52.180249363240755, -95.0625 40.23549872648151, -95.0625 21.375" stroke="#ccc" stroke-width="1.3" fill="none" stroke-dasharray="0 0"></path></g><g style="" class="row-rect-even"><path d="M-95.0625 64.125 L95.0625 64.125 L95.0625 106.875 L-95.0625 106.875" stroke="none" stroke-width="0" fill="hsl(180, 1.5873015873%, 2.3529411765%)"></path><path d="M-95.0625 64.125 C-37.989427752658564 64.125, 19.083644494682872 64.125, 95.0625 64.125 M-95.0625 64.125 C-50.851195592913314 64.125, -6.639891185826627 64.125, 95.0625 64.125 M95.0625 64.125 C95.0625 80.04485526558433, 95.0625 95.96471053116866, 95.0625 106.875 M95.0625 64.125 C95.0625 77.54589629597255, 95.0625 90.96679259194511, 95.0625 106.875 M95.0625 106.875 C22.156162175548857 106.875, -50.750175648902285 106.875, -95.0625 106.875 M95.0625 106.875 C51.6177904677944 106.875, 8.1730809355888 106.875, -95.0625 106.875 M-95.0625 106.875 C-95.0625 93.50937757598476, -95.0625 80.14375515196953, -95.0625 64.125 M-95.0625 106.875 C-95.0625 93.18738014199394, -95.0625 79.49976028398787, -95.0625 64.125" stroke="#ccc" stroke-width="1.3" fill="none" stroke-dasharray="0 0"></path></g><g style="" class="row-rect-odd"><path d="M-95.0625 106.875 L95.0625 106.875 L95.0625 149.625 L-95.0625 149.625" stroke="none" stroke-width="0" fill="hsl(180, 1.5873015873%, 17.3529411765%)"></path><path d="M-95.0625 106.875 C-45.322098054688105 106.875, 4.41830389062379 106.875, 95.0625 106.875 M-95.0625 106.875 C-26.53748931319045 106.875, 41.9875213736191 106.875, 95.0625 106.875 M95.0625 106.875 C95.0625 120.15722785900809, 95.0625 133.43945571801618, 95.0625 149.625 M95.0625 106.875 C95.0625 117.03927999744477, 95.0625 127.20355999488952, 95.0625 149.625 M95.0625 149.625 C34.69689963574382 149.625, -25.668700728512363 149.625, -95.0625 149.625 M95.0625 149.625 C27.012136651442447 149.625, -41.03822669711511 149.625, -95.0625 149.625 M-95.0625 149.625 C-95.0625 134.3820964297842, -95.0625 119.13919285956842, -95.0625 106.875 M-95.0625 149.625 C-95.0625 135.72938392517136, -95.0625 121.83376785034271, -95.0625 106.875" stroke="#ccc" stroke-width="1.3" fill="none" stroke-dasharray="0 0"></path></g><g style="" class="row-rect-even"><path d="M-95.0625 149.625 L95.0625 149.625 L95.0625 192.375 L-95.0625 192.375" stroke="none" stroke-width="0" fill="hsl(180, 1.5873015873%, 2.3529411765%)"></path><path d="M-95.0625 149.625 C-53.32999537486911 149.625, -11.597490749738213 149.625, 95.0625 149.625 M-95.0625 149.625 C-21.37013593784424 149.625, 52.32222812431152 149.625, 95.0625 149.625 M95.0625 149.625 C95.0625 158.85721662478252, 95.0625 168.08943324956505, 95.0625 192.375 M95.0625 149.625 C95.0625 164.31913569459755, 95.0625 179.0132713891951, 95.0625 192.375 M95.0625 192.375 C23.37552254637734 192.375, -48.31145490724532 192.375, -95.0625 192.375 M95.0625 192.375 C23.78261585511582 192.375, -47.49726828976836 192.375, -95.0625 192.375 M-95.0625 192.375 C-95.0625 182.41140041672995, -95.0625 172.44780083345992, -95.0625 149.625 M-95.0625 192.375 C-95.0625 178.50049437121345, -95.0625 164.6259887424269, -95.0625 149.625" stroke="#ccc" stroke-width="1.3" fill="none" stroke-dasharray="0 0"></path></g><g class="label name" transform="translate(-19.3984375, -183)" style=""><foreignObject width="38.796875" height="24"><div xmlns="http://www.w3.org/1999/xhtml" style="display: table-cell; white-space: nowrap; line-height: 1.5; max-width: 146px; text-align: start;"><span class="nodeLabel"><p>ISSUE</p></span></div></foreignObject></g><g class="label attribute-type" transform="translate(-82.5625, -140.25)" style=""><foreignObject width="40.375" height="24"><div xmlns="http://www.w3.org/1999/xhtml" style="display: table-cell; white-space: nowrap; line-height: 1.5; max-width: 149px; text-align: start;"><span class="nodeLabel"><p>string</p></span></div></foreignObject></g><g class="label attribute-name" transform="translate(-17.1875, -140.25)" style=""><foreignObject width="19.6875" height="24"><div xmlns="http://www.w3.org/1999/xhtml" style="display: table-cell; white-space: nowrap; line-height: 1.5; max-width: 122px; text-align: start;"><span class="nodeLabel"><p>url</p></span></div></foreignObject></g><g class="label attribute-keys" transform="translate(107.5625, -140.25)" style=""><foreignObject width="0" height="0"><div xmlns="http://www.w3.org/1999/xhtml" style="display: table-cell; white-space: nowrap; line-height: 1.5; max-width: 100px; text-align: start;"><span class="nodeLabel"></span></div></foreignObject></g><g class="label attribute-comment" transform="translate(107.5625, -140.25)" style=""><foreignObject width="0" height="0"><div xmlns="http://www.w3.org/1999/xhtml" style="display: table-cell; white-space: nowrap; line-height: 1.5; max-width: 100px; text-align: start;"><span class="nodeLabel"></span></div></foreignObject></g><g class="label attribute-type" transform="translate(-82.5625, -97.5)" style=""><foreignObject width="40.375" height="24"><div xmlns="http://www.w3.org/1999/xhtml" style="display: table-cell; white-space: nowrap; line-height: 1.5; max-width: 149px; text-align: start;"><span class="nodeLabel"><p>string</p></span></div></foreignObject></g><g class="label attribute-name" transform="translate(-17.1875, -97.5)" style=""><foreignObject width="36.296875" height="24"><div xmlns="http://www.w3.org/1999/xhtml" style="display: table-cell; white-space: nowrap; line-height: 1.5; max-width: 144px; text-align: start;"><span class="nodeLabel"><p>state</p></span></div></foreignObject></g><g class="label attribute-keys" transform="translate(107.5625, -97.5)" style=""><foreignObject width="0" height="0"><div xmlns="http://www.w3.org/1999/xhtml" style="display: table-cell; white-space: nowrap; line-height: 1.5; max-width: 100px; text-align: start;"><span class="nodeLabel"></span></div></foreignObject></g><g class="label attribute-comment" transform="translate(107.5625, -97.5)" style=""><foreignObject width="0" height="0"><div xmlns="http://www.w3.org/1999/xhtml" style="display: table-cell; white-space: nowrap; line-height: 1.5; max-width: 100px; text-align: start;"><span class="nodeLabel"></span></div></foreignObject></g><g class="label attribute-type" transform="translate(-82.5625, -54.75)" style=""><foreignObject width="40.375" height="24"><div xmlns="http://www.w3.org/1999/xhtml" style="display: table-cell; white-space: nowrap; line-height: 1.5; max-width: 149px; text-align: start;"><span class="nodeLabel"><p>string</p></span></div></foreignObject></g><g class="label attribute-name" transform="translate(-17.1875, -54.75)" style=""><foreignObject width="30.703125" height="24"><div xmlns="http://www.w3.org/1999/xhtml" style="display: table-cell; white-space: nowrap; line-height: 1.5; max-width: 137px; text-align: start;"><span class="nodeLabel"><p>title</p></span></div></foreignObject></g><g class="label attribute-keys" transform="translate(107.5625, -54.75)" style=""><foreignObject width="0" height="0"><div xmlns="http://www.w3.org/1999/xhtml" style="display: table-cell; white-space: nowrap; line-height: 1.5; max-width: 100px; text-align: start;"><span class="nodeLabel"></span></div></foreignObject></g><g class="label attribute-comment" transform="translate(107.5625, -54.75)" style=""><foreignObject width="0" height="0"><div xmlns="http://www.w3.org/1999/xhtml" style="display: table-cell; white-space: nowrap; line-height: 1.5; max-width: 100px; text-align: start;"><span class="nodeLabel"></span></div></foreignObject></g><g class="label attribute-type" transform="translate(-82.5625, -12)" style=""><foreignObject width="40.375" height="24"><div xmlns="http://www.w3.org/1999/xhtml" style="display: table-cell; white-space: nowrap; line-height: 1.5; max-width: 149px; text-align: start;"><span class="nodeLabel"><p>string</p></span></div></foreignObject></g><g class="label attribute-name" transform="translate(-17.1875, -12)" style=""><foreignObject width="29.4375" height="24"><div xmlns="http://www.w3.org/1999/xhtml" style="display: table-cell; white-space: nowrap; line-height: 1.5; max-width: 135px; text-align: start;"><span class="nodeLabel"><p>text</p></span></div></foreignObject></g><g class="label attribute-keys" transform="translate(107.5625, -12)" style=""><foreignObject width="0" height="0"><div xmlns="http://www.w3.org/1999/xhtml" style="display: table-cell; white-space: nowrap; line-height: 1.5; max-width: 100px; text-align: start;"><span class="nodeLabel"></span></div></foreignObject></g><g class="label attribute-comment" transform="translate(107.5625, -12)" style=""><foreignObject width="0" height="0"><div xmlns="http://www.w3.org/1999/xhtml" style="display: table-cell; white-space: nowrap; line-height: 1.5; max-width: 100px; text-align: start;"><span class="nodeLabel"></span></div></foreignObject></g><g class="label attribute-type" transform="translate(-82.5625, 30.75)" style=""><foreignObject width="19.65625" height="24"><div xmlns="http://www.w3.org/1999/xhtml" style="display: table-cell; white-space: nowrap; line-height: 1.5; max-width: 123px; text-align: start;"><span class="nodeLabel"><p>int</p></span></div></foreignObject></g><g class="label attribute-name" transform="translate(-17.1875, 30.75)" style=""><foreignObject width="54.625" height="24"><div xmlns="http://www.w3.org/1999/xhtml" style="display: table-cell; white-space: nowrap; line-height: 1.5; max-width: 159px; text-align: start;"><span class="nodeLabel"><p>number</p></span></div></foreignObject></g><g class="label attribute-keys" transform="translate(107.5625, 30.75)" style=""><foreignObject width="0" height="0"><div xmlns="http://www.w3.org/1999/xhtml" style="display: table-cell; white-space: nowrap; line-height: 1.5; max-width: 100px; text-align: start;"><span class="nodeLabel"></span></div></foreignObject></g><g class="label attribute-comment" transform="translate(107.5625, 30.75)" style=""><foreignObject width="0" height="0"><div xmlns="http://www.w3.org/1999/xhtml" style="display: table-cell; white-space: nowrap; line-height: 1.5; max-width: 100px; text-align: start;"><span class="nodeLabel"></span></div></foreignObject></g><g class="label attribute-type" transform="translate(-82.5625, 73.5)" style=""><foreignObject width="32.390625" height="24"><div xmlns="http://www.w3.org/1999/xhtml" style="display: table-cell; white-space: nowrap; line-height: 1.5; max-width: 137px; text-align: start;"><span class="nodeLabel"><p>date</p></span></div></foreignObject></g><g class="label attribute-name" transform="translate(-17.1875, 73.5)" style=""><foreignObject width="96.046875" height="24"><div xmlns="http://www.w3.org/1999/xhtml" style="display: table-cell; white-space: nowrap; line-height: 1.5; max-width: 208px; text-align: start;"><span class="nodeLabel"><p>created_date</p></span></div></foreignObject></g><g class="label attribute-keys" transform="translate(107.5625, 73.5)" style=""><foreignObject width="0" height="0"><div xmlns="http://www.w3.org/1999/xhtml" style="display: table-cell; white-space: nowrap; line-height: 1.5; max-width: 100px; text-align: start;"><span class="nodeLabel"></span></div></foreignObject></g><g class="label attribute-comment" transform="translate(107.5625, 73.5)" style=""><foreignObject width="0" height="0"><div xmlns="http://www.w3.org/1999/xhtml" style="display: table-cell; white-space: nowrap; line-height: 1.5; max-width: 100px; text-align: start;"><span class="nodeLabel"></span></div></foreignObject></g><g class="label attribute-type" transform="translate(-82.5625, 116.25)" style=""><foreignObject width="32.390625" height="24"><div xmlns="http://www.w3.org/1999/xhtml" style="display: table-cell; white-space: nowrap; line-height: 1.5; max-width: 137px; text-align: start;"><span class="nodeLabel"><p>date</p></span></div></foreignObject></g><g class="label attribute-name" transform="translate(-17.1875, 116.25)" style=""><foreignObject width="99.75" height="24"><div xmlns="http://www.w3.org/1999/xhtml" style="display: table-cell; white-space: nowrap; line-height: 1.5; max-width: 212px; text-align: start;"><span class="nodeLabel"><p>updated_date</p></span></div></foreignObject></g><g class="label attribute-keys" transform="translate(107.5625, 116.25)" style=""><foreignObject width="0" height="0"><div xmlns="http://www.w3.org/1999/xhtml" style="display: table-cell; white-space: nowrap; line-height: 1.5; max-width: 100px; text-align: start;"><span class="nodeLabel"></span></div></foreignObject></g><g class="label attribute-comment" transform="translate(107.5625, 116.25)" style=""><foreignObject width="0" height="0"><div xmlns="http://www.w3.org/1999/xhtml" style="display: table-cell; white-space: nowrap; line-height: 1.5; max-width: 100px; text-align: start;"><span class="nodeLabel"></span></div></foreignObject></g><g class="label attribute-type" transform="translate(-82.5625, 159)" style=""><foreignObject width="40.375" height="24"><div xmlns="http://www.w3.org/1999/xhtml" style="display: table-cell; white-space: nowrap; line-height: 1.5; max-width: 149px; text-align: start;"><span class="nodeLabel"><p>string</p></span></div></foreignObject></g><g class="label attribute-name" transform="translate(-17.1875, 159)" style=""><foreignObject width="87.734375" height="24"><div xmlns="http://www.w3.org/1999/xhtml" style="display: table-cell; white-space: nowrap; line-height: 1.5; max-width: 199px; text-align: start;"><span class="nodeLabel"><p>timeline_url</p></span></div></foreignObject></g><g class="label attribute-keys" transform="translate(107.5625, 159)" style=""><foreignObject width="0" height="0"><div xmlns="http://www.w3.org/1999/xhtml" style="display: table-cell; white-space: nowrap; line-height: 1.5; max-width: 100px; text-align: start;"><span class="nodeLabel"></span></div></foreignObject></g><g class="label attribute-comment" transform="translate(107.5625, 159)" style=""><foreignObject width="0" height="0"><div xmlns="http://www.w3.org/1999/xhtml" style="display: table-cell; white-space: nowrap; line-height: 1.5; max-width: 100px; text-align: start;"><span class="nodeLabel"></span></div></foreignObject></g><g class="divider"><path d="M-95.0625 -149.625 C-35.97153473744053 -149.625, 23.119430525118943 -149.625, 95.0625 -149.625 M-95.0625 -149.625 C-39.58468699360842 -149.625, 15.893126012783156 -149.625, 95.0625 -149.625" stroke="#ccc" stroke-width="1.3" fill="none" stroke-dasharray="0 0"></path></g><g class="divider"><path d="M-29.6875 -149.625 C-29.6875 -44.090054093222534, -29.6875 61.44489181355493, -29.6875 192.375 M-29.6875 -149.625 C-29.6875 -57.03861237892693, -29.6875 35.547775242146145, -29.6875 192.375" stroke="#ccc" stroke-width="1.3" fill="none" stroke-dasharray="0 0"></path></g><g class="divider"><path d="M-95.0625 -149.625 C-46.55282496471078 -149.625, 1.9568500705784402 -149.625, 95.0625 -149.625 M-95.0625 -149.625 C-23.016596576634043 -149.625, 49.02930684673191 -149.625, 95.0625 -149.625" stroke="#ccc" stroke-width="1.3" fill="none" stroke-dasharray="0 0"></path></g></g><g class="node default" id="entity-EVENT-2" transform="translate(411.640625, 765.75)"><g style=""><path d="M-85.765625 -85.5 L85.765625 -85.5 L85.765625 85.5 L-85.765625 85.5" stroke="none" stroke-width="0" fill="#1f2020"></path><path d="M-85.765625 -85.5 C-38.01028203118532 -85.5, 9.745060937629361 -85.5, 85.765625 -85.5 M-85.765625 -85.5 C-21.63711022224578 -85.5, 42.49140455550844 -85.5, 85.765625 -85.5 M85.765625 -85.5 C85.765625 -35.403299980661686, 85.765625 14.693400038676629, 85.765625 85.5 M85.765625 -85.5 C85.765625 -36.330299952598025, 85.765625 12.839400094803949, 85.765625 85.5 M85.765625 85.5 C22.22497947195756 85.5, -41.31566605608488 85.5, -85.765625 85.5 M85.765625 85.5 C31.624705811594197 85.5, -22.516213376811606 85.5, -85.765625 85.5 M-85.765625 85.5 C-85.765625 45.40749385673685, -85.765625 5.314987713473698, -85.765625 -85.5 M-85.765625 85.5 C-85.765625 30.50044615945974, -85.765625 -24.499107681080517, -85.765625 -85.5" stroke="#ccc" stroke-width="1.3" fill="none" stroke-dasharray="0 0"></path></g><g style="" class="row-rect-odd"><path d="M-85.765625 -42.75 L85.765625 -42.75 L85.765625 0 L-85.765625 0" stroke="none" stroke-width="0" fill="hsl(180, 1.5873015873%, 17.3529411765%)"></path><path d="M-85.765625 -42.75 C-27.76603200679201 -42.75, 30.23356098641598 -42.75, 85.765625 -42.75 M-85.765625 -42.75 C-37.509377570877305 -42.75, 10.74686985824539 -42.75, 85.765625 -42.75 M85.765625 -42.75 C85.765625 -29.151008991149595, 85.765625 -15.552017982299194, 85.765625 0 M85.765625 -42.75 C85.765625 -31.271416295009395, 85.765625 -19.79283259001879, 85.765625 0 M85.765625 0 C34.408401360259674 0, -16.948822279480652 0, -85.765625 0 M85.765625 0 C17.538198017105316 0, -50.68922896578937 0, -85.765625 0 M-85.765625 0 C-85.765625 -15.161783211681739, -85.765625 -30.323566423363477, -85.765625 -42.75 M-85.765625 0 C-85.765625 -16.899319046010607, -85.765625 -33.798638092021214, -85.765625 -42.75" stroke="#ccc" stroke-width="1.3" fill="none" stroke-dasharray="0 0"></path></g><g style="" class="row-rect-even"><path d="M-85.765625 0 L85.765625 0 L85.765625 42.75 L-85.765625 42.75" stroke="none" stroke-width="0" fill="hsl(180, 1.5873015873%, 2.3529411765%)"></path><path d="M-85.765625 0 C-21.718210392671992 0, 42.329204214656016 0, 85.765625 0 M-85.765625 0 C-19.49064533604509 0, 46.78433432790982 0, 85.765625 0 M85.765625 0 C85.765625 11.180145912865457, 85.765625 22.360291825730915, 85.765625 42.75 M85.765625 0 C85.765625 10.82977070648286, 85.765625 21.65954141296572, 85.765625 42.75 M85.765625 42.75 C46.0774019969352 42.75, 6.389178993870402 42.75, -85.765625 42.75 M85.765625 42.75 C45.48014057858495 42.75, 5.194656157169902 42.75, -85.765625 42.75 M-85.765625 42.75 C-85.765625 26.00725591663601, -85.765625 9.264511833272017, -85.765625 0 M-85.765625 42.75 C-85.765625 30.17520541991316, -85.765625 17.600410839826317, -85.765625 0" stroke="#ccc" stroke-width="1.3" fill="none" stroke-dasharray="0 0"></path></g><g style="" class="row-rect-odd"><path d="M-85.765625 42.75 L85.765625 42.75 L85.765625 85.5 L-85.765625 85.5" stroke="none" stroke-width="0" fill="hsl(180, 1.5873015873%, 17.3529411765%)"></path><path d="M-85.765625 42.75 C-47.82784105325394 42.75, -9.890057106507882 42.75, 85.765625 42.75 M-85.765625 42.75 C-37.604934681875015 42.75, 10.55575563624997 42.75, 85.765625 42.75 M85.765625 42.75 C85.765625 52.75278385488111, 85.765625 62.75556770976222, 85.765625 85.5 M85.765625 42.75 C85.765625 53.392004866943985, 85.765625 64.03400973388797, 85.765625 85.5 M85.765625 85.5 C27.62031211054766 85.5, -30.525000778904683 85.5, -85.765625 85.5 M85.765625 85.5 C30.382038974107246 85.5, -25.001547051785508 85.5, -85.765625 85.5 M-85.765625 85.5 C-85.765625 73.2299418918915, -85.765625 60.959883783783, -85.765625 42.75 M-85.765625 85.5 C-85.765625 74.66451574843553, -85.765625 63.82903149687105, -85.765625 42.75" stroke="#ccc" stroke-width="1.3" fill="none" stroke-dasharray="0 0"></path></g><g class="label name" transform="translate(-23.0234375, -76.125)" style=""><foreignObject width="46.046875" height="24"><div xmlns="http://www.w3.org/1999/xhtml" style="display: table-cell; white-space: nowrap; line-height: 1.5; max-width: 148px; text-align: start;"><span class="nodeLabel"><p>EVENT</p></span></div></foreignObject></g><g class="label attribute-type" transform="translate(-73.265625, -33.375)" style=""><foreignObject width="40.375" height="24"><div xmlns="http://www.w3.org/1999/xhtml" style="display: table-cell; white-space: nowrap; line-height: 1.5; max-width: 149px; text-align: start;"><span class="nodeLabel"><p>string</p></span></div></foreignObject></g><g class="label attribute-name" transform="translate(-7.890625, -33.375)" style=""><foreignObject width="80.640625" height="24"><div xmlns="http://www.w3.org/1999/xhtml" style="display: table-cell; white-space: nowrap; line-height: 1.5; max-width: 193px; text-align: start;"><span class="nodeLabel"><p>event_type</p></span></div></foreignObject></g><g class="label attribute-keys" transform="translate(98.265625, -33.375)" style=""><foreignObject width="0" height="0"><div xmlns="http://www.w3.org/1999/xhtml" style="display: table-cell; white-space: nowrap; line-height: 1.5; max-width: 100px; text-align: start;"><span class="nodeLabel"></span></div></foreignObject></g><g class="label attribute-comment" transform="translate(98.265625, -33.375)" style=""><foreignObject width="0" height="0"><div xmlns="http://www.w3.org/1999/xhtml" style="display: table-cell; white-space: nowrap; line-height: 1.5; max-width: 100px; text-align: start;"><span class="nodeLabel"></span></div></foreignObject></g><g class="label attribute-type" transform="translate(-73.265625, 9.375)" style=""><foreignObject width="32.390625" height="24"><div xmlns="http://www.w3.org/1999/xhtml" style="display: table-cell; white-space: nowrap; line-height: 1.5; max-width: 137px; text-align: start;"><span class="nodeLabel"><p>date</p></span></div></foreignObject></g><g class="label attribute-name" transform="translate(-7.890625, 9.375)" style=""><foreignObject width="81.15625" height="24"><div xmlns="http://www.w3.org/1999/xhtml" style="display: table-cell; white-space: nowrap; line-height: 1.5; max-width: 193px; text-align: start;"><span class="nodeLabel"><p>event_date</p></span></div></foreignObject></g><g class="label attribute-keys" transform="translate(98.265625, 9.375)" style=""><foreignObject width="0" height="0"><div xmlns="http://www.w3.org/1999/xhtml" style="display: table-cell; white-space: nowrap; line-height: 1.5; max-width: 100px; text-align: start;"><span class="nodeLabel"></span></div></foreignObject></g><g class="label attribute-comment" transform="translate(98.265625, 9.375)" style=""><foreignObject width="0" height="0"><div xmlns="http://www.w3.org/1999/xhtml" style="display: table-cell; white-space: nowrap; line-height: 1.5; max-width: 100px; text-align: start;"><span class="nodeLabel"></span></div></foreignObject></g><g class="label attribute-type" transform="translate(-73.265625, 52.125)" style=""><foreignObject width="40.375" height="24"><div xmlns="http://www.w3.org/1999/xhtml" style="display: table-cell; white-space: nowrap; line-height: 1.5; max-width: 149px; text-align: start;"><span class="nodeLabel"><p>string</p></span></div></foreignObject></g><g class="label attribute-name" transform="translate(-7.890625, 52.125)" style=""><foreignObject width="66.890625" height="24"><div xmlns="http://www.w3.org/1999/xhtml" style="display: table-cell; white-space: nowrap; line-height: 1.5; max-width: 172px; text-align: start;"><span class="nodeLabel"><p>comment</p></span></div></foreignObject></g><g class="label attribute-keys" transform="translate(98.265625, 52.125)" style=""><foreignObject width="0" height="0"><div xmlns="http://www.w3.org/1999/xhtml" style="display: table-cell; white-space: nowrap; line-height: 1.5; max-width: 100px; text-align: start;"><span class="nodeLabel"></span></div></foreignObject></g><g class="label attribute-comment" transform="translate(98.265625, 52.125)" style=""><foreignObject width="0" height="0"><div xmlns="http://www.w3.org/1999/xhtml" style="display: table-cell; white-space: nowrap; line-height: 1.5; max-width: 100px; text-align: start;"><span class="nodeLabel"></span></div></foreignObject></g><g class="divider"><path d="M-85.765625 -42.75 C-48.79094426172739 -42.75, -11.81626352345478 -42.75, 85.765625 -42.75 M-85.765625 -42.75 C-17.888790763060896 -42.75, 49.98804347387821 -42.75, 85.765625 -42.75" stroke="#ccc" stroke-width="1.3" fill="none" stroke-dasharray="0 0"></path></g><g class="divider"><path d="M-20.390625 -42.75 C-20.390625 8.37178044646673, -20.390625 59.49356089293346, -20.390625 85.5 M-20.390625 -42.75 C-20.390625 3.319209512086971, -20.390625 49.38841902417394, -20.390625 85.5" stroke="#ccc" stroke-width="1.3" fill="none" stroke-dasharray="0 0"></path></g><g class="divider"><path d="M-85.765625 -42.75 C-36.766366394692454 -42.75, 12.232892210615091 -42.75, 85.765625 -42.75 M-85.765625 -42.75 C-48.64168358485556 -42.75, -11.517742169711127 -42.75, 85.765625 -42.75" stroke="#ccc" stroke-width="1.3" fill="none" stroke-dasharray="0 0"></path></g></g><g class="node default" id="entity-LABEL-3" transform="translate(96.9375, 765.75)"><g style=""><path d="M-88.9375 -42.75 L88.9375 -42.75 L88.9375 42.75 L-88.9375 42.75" stroke="none" stroke-width="0" fill="#1f2020"></path><path d="M-88.9375 -42.75 C-35.07711417961321 -42.75, 18.783271640773577 -42.75, 88.9375 -42.75 M-88.9375 -42.75 C-48.350681459757894 -42.75, -7.7638629195157876 -42.75, 88.9375 -42.75 M88.9375 -42.75 C88.9375 -18.294792181183976, 88.9375 6.160415637632049, 88.9375 42.75 M88.9375 -42.75 C88.9375 -18.935930333533356, 88.9375 4.878139332933287, 88.9375 42.75 M88.9375 42.75 C47.0836158828268 42.75, 5.229731765653597 42.75, -88.9375 42.75 M88.9375 42.75 C19.969053928878168 42.75, -48.999392142243664 42.75, -88.9375 42.75 M-88.9375 42.75 C-88.9375 22.036566183444435, -88.9375 1.3231323668888706, -88.9375 -42.75 M-88.9375 42.75 C-88.9375 16.385888376238093, -88.9375 -9.978223247523815, -88.9375 -42.75" stroke="#ccc" stroke-width="1.3" fill="none" stroke-dasharray="0 0"></path></g><g style="" class="row-rect-odd"><path d="M-88.9375 0 L88.9375 0 L88.9375 42.75 L-88.9375 42.75" stroke="none" stroke-width="0" fill="hsl(180, 1.5873015873%, 17.3529411765%)"></path><path d="M-88.9375 0 C-19.685622741236372 0, 49.566254517527256 0, 88.9375 0 M-88.9375 0 C-22.11356500573261 0, 44.71036998853478 0, 88.9375 0 M88.9375 0 C88.9375 11.306746392679857, 88.9375 22.613492785359714, 88.9375 42.75 M88.9375 0 C88.9375 12.944314488979437, 88.9375 25.888628977958874, 88.9375 42.75 M88.9375 42.75 C41.8791523484865 42.75, -5.179195303027001 42.75, -88.9375 42.75 M88.9375 42.75 C23.78492117667082 42.75, -41.36765764665836 42.75, -88.9375 42.75 M-88.9375 42.75 C-88.9375 28.826638821301152, -88.9375 14.903277642602305, -88.9375 0 M-88.9375 42.75 C-88.9375 28.650334642128566, -88.9375 14.550669284257133, -88.9375 0" stroke="#ccc" stroke-width="1.3" fill="none" stroke-dasharray="0 0"></path></g><g class="label name" transform="translate(-21.6328125, -33.375)" style=""><foreignObject width="43.265625" height="24"><div xmlns="http://www.w3.org/1999/xhtml" style="display: table-cell; white-space: nowrap; line-height: 1.5; max-width: 146px; text-align: start;"><span class="nodeLabel"><p>LABEL</p></span></div></foreignObject></g><g class="label attribute-type" transform="translate(-76.4375, 9.375)" style=""><foreignObject width="52.125" height="24"><div xmlns="http://www.w3.org/1999/xhtml" style="display: table-cell; white-space: nowrap; line-height: 1.5; max-width: 163px; text-align: start;"><span class="nodeLabel"><p>string[]</p></span></div></foreignObject></g><g class="label attribute-name" transform="translate(0.6875, 9.375)" style=""><foreignObject width="75.75" height="24"><div xmlns="http://www.w3.org/1999/xhtml" style="display: table-cell; white-space: nowrap; line-height: 1.5; max-width: 186px; text-align: start;"><span class="nodeLabel"><p>label_type</p></span></div></foreignObject></g><g class="label attribute-keys" transform="translate(101.4375, 9.375)" style=""><foreignObject width="0" height="0"><div xmlns="http://www.w3.org/1999/xhtml" style="display: table-cell; white-space: nowrap; line-height: 1.5; max-width: 100px; text-align: start;"><span class="nodeLabel"></span></div></foreignObject></g><g class="label attribute-comment" transform="translate(101.4375, 9.375)" style=""><foreignObject width="0" height="0"><div xmlns="http://www.w3.org/1999/xhtml" style="display: table-cell; white-space: nowrap; line-height: 1.5; max-width: 100px; text-align: start;"><span class="nodeLabel"></span></div></foreignObject></g><g class="divider"><path d="M-88.9375 0 C-44.09261095647293 0, 0.7522780870541368 0, 88.9375 0 M-88.9375 0 C-51.7174887174376 0, -14.497477434875194 0, 88.9375 0" stroke="#ccc" stroke-width="1.3" fill="none" stroke-dasharray="0 0"></path></g><g class="divider"><path d="M-11.8125 0 C-11.8125 11.23722888562557, -11.8125 22.47445777125114, -11.8125 42.75 M-11.8125 0 C-11.8125 11.011033575852528, -11.8125 22.022067151705055, -11.8125 42.75" stroke="#ccc" stroke-width="1.3" fill="none" stroke-dasharray="0 0"></path></g><g class="divider"><path d="M-88.9375 0 C-25.558234296307447 0, 37.82103140738511 0, 88.9375 0 M-88.9375 0 C-21.28447033275262 0, 46.36855933449476 0, 88.9375 0" stroke="#ccc" stroke-width="1.3" fill="none" stroke-dasharray="0 0"></path></g></g></g></g></g></g></svg>