<svg id="mermaid-svg" width="100%" xmlns="http://www.w3.org/2000/svg" class="classDiagram" style="max-width: 852.69140625px;" viewBox="0 0 852.69140625 1204" role="graphics-document document" aria-roledescription="class" xmlns:xlink="http://www.w3.org/1999/xlink"><style xmlns="http://www.w3.org/1999/xhtml">@import url("https://cdnjs.cloudflare.com/ajax/libs/font-awesome/6.7.2/css/all.min.css");</style><style>#mermaid-svg{font-family:"trebuchet ms",verdana,arial,sans-serif;font-size:16px;fill:#333;}@keyframes edge-animation-frame{from{stroke-dashoffset:0;}}@keyframes dash{to{stroke-dashoffset:0;}}#mermaid-svg .edge-animation-slow{stroke-dasharray:9,5!important;stroke-dashoffset:900;animation:dash 50s linear infinite;stroke-linecap:round;}#mermaid-svg .edge-animation-fast{stroke-dasharray:9,5!important;stroke-dashoffset:900;animation:dash 20s linear infinite;stroke-linecap:round;}#mermaid-svg .error-icon{fill:#552222;}#mermaid-svg .error-text{fill:#552222;stroke:#552222;}#mermaid-svg .edge-thickness-normal{stroke-width:1px;}#mermaid-svg .edge-thickness-thick{stroke-width:3.5px;}#mermaid-svg .edge-pattern-solid{stroke-dasharray:0;}#mermaid-svg .edge-thickness-invisible{stroke-width:0;fill:none;}#mermaid-svg .edge-pattern-dashed{stroke-dasharray:3;}#mermaid-svg .edge-pattern-dotted{stroke-dasharray:2;}#mermaid-svg .marker{fill:#333333;stroke:#333333;}#mermaid-svg .marker.cross{stroke:#333333;}#mermaid-svg svg{font-family:"trebuchet ms",verdana,arial,sans-serif;font-size:16px;}#mermaid-svg p{margin:0;}#mermaid-svg g.classGroup text{fill:#9370DB;stroke:none;font-family:"trebuchet ms",verdana,arial,sans-serif;font-size:10px;}#mermaid-svg g.classGroup text .title{font-weight:bolder;}#mermaid-svg .nodeLabel,#mermaid-svg .edgeLabel{color:#131300;}#mermaid-svg .edgeLabel .label rect{fill:#ECECFF;}#mermaid-svg .label text{fill:#131300;}#mermaid-svg .labelBkg{background:#ECECFF;}#mermaid-svg .edgeLabel .label span{background:#ECECFF;}#mermaid-svg .classTitle{font-weight:bolder;}#mermaid-svg .node rect,#mermaid-svg .node circle,#mermaid-svg .node ellipse,#mermaid-svg .node polygon,#mermaid-svg .node path{fill:#ECECFF;stroke:#9370DB;stroke-width:1px;}#mermaid-svg .divider{stroke:#9370DB;stroke-width:1;}#mermaid-svg g.clickable{cursor:pointer;}#mermaid-svg g.classGroup rect{fill:#ECECFF;stroke:#9370DB;}#mermaid-svg g.classGroup line{stroke:#9370DB;stroke-width:1;}#mermaid-svg .classLabel .box{stroke:none;stroke-width:0;fill:#ECECFF;opacity:0.5;}#mermaid-svg .classLabel .label{fill:#9370DB;font-size:10px;}#mermaid-svg .relation{stroke:#333333;stroke-width:1;fill:none;}#mermaid-svg .dashed-line{stroke-dasharray:3;}#mermaid-svg .dotted-line{stroke-dasharray:1 2;}#mermaid-svg #compositionStart,#mermaid-svg .composition{fill:#333333!important;stroke:#333333!important;stroke-width:1;}#mermaid-svg #compositionEnd,#mermaid-svg .composition{fill:#333333!important;stroke:#333333!important;stroke-width:1;}#mermaid-svg #dependencyStart,#mermaid-svg .dependency{fill:#333333!important;stroke:#333333!important;stroke-width:1;}#mermaid-svg #dependencyStart,#mermaid-svg .dependency{fill:#333333!important;stroke:#333333!important;stroke-width:1;}#mermaid-svg #extensionStart,#mermaid-svg .extension{fill:transparent!important;stroke:#333333!important;stroke-width:1;}#mermaid-svg #extensionEnd,#mermaid-svg .extension{fill:transparent!important;stroke:#333333!important;stroke-width:1;}#mermaid-svg #aggregationStart,#mermaid-svg .aggregation{fill:transparent!important;stroke:#333333!important;stroke-width:1;}#mermaid-svg #aggregationEnd,#mermaid-svg .aggregation{fill:transparent!important;stroke:#333333!important;stroke-width:1;}#mermaid-svg #lollipopStart,#mermaid-svg .lollipop{fill:#ECECFF!important;stroke:#333333!important;stroke-width:1;}#mermaid-svg #lollipopEnd,#mermaid-svg .lollipop{fill:#ECECFF!important;stroke:#333333!important;stroke-width:1;}#mermaid-svg .edgeTerminals{font-size:11px;line-height:initial;}#mermaid-svg .classTitleText{text-anchor:middle;font-size:18px;fill:#333;}#mermaid-svg .label-icon{display:inline-block;height:1em;overflow:visible;vertical-align:-0.125em;}#mermaid-svg .node .label-icon path{fill:currentColor;stroke:revert;stroke-width:revert;}#mermaid-svg :root{--mermaid-font-family:"trebuchet ms",verdana,arial,sans-serif;}</style><g><defs><marker id="mermaid-svg_class-aggregationStart" class="marker aggregation class" refX="18" refY="7" markerWidth="190" markerHeight="240" orient="auto"><path d="M 18,7 L9,13 L1,7 L9,1 Z"/></marker></defs><defs><marker id="mermaid-svg_class-aggregationEnd" class="marker aggregation class" refX="1" refY="7" markerWidth="20" markerHeight="28" orient="auto"><path d="M 18,7 L9,13 L1,7 L9,1 Z"/></marker></defs><defs><marker id="mermaid-svg_class-extensionStart" class="marker extension class" refX="18" refY="7" markerWidth="190" markerHeight="240" orient="auto"><path d="M 1,7 L18,13 V 1 Z"/></marker></defs><defs><marker id="mermaid-svg_class-extensionEnd" class="marker extension class" refX="1" refY="7" markerWidth="20" markerHeight="28" orient="auto"><path d="M 1,1 V 13 L18,7 Z"/></marker></defs><defs><marker id="mermaid-svg_class-compositionStart" class="marker composition class" refX="18" refY="7" markerWidth="190" markerHeight="240" orient="auto"><path d="M 18,7 L9,13 L1,7 L9,1 Z"/></marker></defs><defs><marker id="mermaid-svg_class-compositionEnd" class="marker composition class" refX="1" refY="7" markerWidth="20" markerHeight="28" orient="auto"><path d="M 18,7 L9,13 L1,7 L9,1 Z"/></marker></defs><defs><marker id="mermaid-svg_class-dependencyStart" class="marker dependency class" refX="6" refY="7" markerWidth="190" markerHeight="240" orient="auto"><path d="M 5,7 L9,13 L1,7 L9,1 Z"/></marker></defs><defs><marker id="mermaid-svg_class-dependencyEnd" class="marker dependency class" refX="13" refY="7" markerWidth="20" markerHeight="28" orient="auto"><path d="M 18,7 L9,13 L14,7 L9,1 Z"/></marker></defs><defs><marker id="mermaid-svg_class-lollipopStart" class="marker lollipop class" refX="13" refY="7" markerWidth="190" markerHeight="240" orient="auto"><circle stroke="black" fill="transparent" cx="7" cy="7" r="6"/></marker></defs><defs><marker id="mermaid-svg_class-lollipopEnd" class="marker lollipop class" refX="1" refY="7" markerWidth="190" markerHeight="240" orient="auto"><circle stroke="black" fill="transparent" cx="7" cy="7" r="6"/></marker></defs><g class="root"><g class="clusters"/><g class="edgePaths"><path d="M225.21,854.517L218.004,865.264C210.798,876.011,196.386,897.506,189.18,914.419C181.975,931.333,181.975,943.667,181.975,949.833L181.975,956" id="id_Issue_Event_1" class=" edge-thickness-normal edge-pattern-solid relation" style=";;;" data-edge="true" data-et="edge" data-id="id_Issue_Event_1" data-points="W3sieCI6MjM0LjgxNjQwNjI1LCJ5Ijo4NDAuMTg5MTg2OTAyNDQ1M30seyJ4IjoxODEuOTc0NjA5Mzc1LCJ5Ijo5MTl9LHsieCI6MTgxLjk3NDYwOTM3NSwieSI6OTU2fV0=" marker-start="url(#mermaid-svg_class-compositionStart)"/><path d="M389.148,882L390.526,888.167C391.904,894.333,394.66,906.667,396.038,924C397.416,941.333,397.416,963.667,397.416,974.833L397.416,986" id="id_Issue_State_2" class=" edge-thickness-normal edge-pattern-solid relation" style=";;;" data-edge="true" data-et="edge" data-id="id_Issue_State_2" data-points="W3sieCI6Mzg5LjE0ODA0ODQ5NTg1MDYsInkiOjg4Mn0seyJ4IjozOTcuNDE2MDE1NjI1LCJ5Ijo5MTl9LHsieCI6Mzk3LjQxNjAxNTYyNSwieSI6OTkyfV0=" marker-end="url(#mermaid-svg_class-dependencyEnd)"/><path d="M492.869,397L490.296,403.667C487.722,410.333,482.575,423.667,476.3,436.996C470.026,450.326,462.624,463.652,458.923,470.314L455.222,476.977" id="id_DataLoader_Issue_3" class=" edge-thickness-normal edge-pattern-dashed relation" style=";;;" data-edge="true" data-et="edge" data-id="id_DataLoader_Issue_3" data-points="W3sieCI6NDkyLjg2OTM5MjY0MTEyOSwieSI6Mzk3fSx7IngiOjQ3Ny40Mjc3MzQzNzUsInkiOjQzN30seyJ4Ijo0NTIuMzA4NTkzNzUsInkiOjQ4Mi4yMjI0NDI2OTY4NTg3fV0=" marker-end="url(#mermaid-svg_class-dependencyEnd)"/><path d="M525.297,152L525.297,158.167C525.297,164.333,525.297,176.667,525.297,188.5C525.297,200.333,525.297,211.667,525.297,217.333L525.297,223" id="id_ExampleAnalysis_DataLoader_4" class=" edge-thickness-normal edge-pattern-solid relation" style=";;;" data-edge="true" data-et="edge" data-id="id_ExampleAnalysis_DataLoader_4" data-points="W3sieCI6NTI1LjI5Njg3NSwieSI6MTUyfSx7IngiOjUyNS4yOTY4NzUsInkiOjE4OX0seyJ4Ijo1MjUuMjk2ODc1LCJ5IjoyMjl9XQ==" marker-end="url(#mermaid-svg_class-dependencyEnd)"/><path d="M430.367,136.937L415.9,145.614C401.432,154.291,372.497,171.646,358.03,200.989C343.563,230.333,343.563,271.667,343.563,313C343.563,354.333,343.563,395.667,343.563,421.5C343.563,447.333,343.563,457.667,343.563,462.833L343.563,468" id="id_ExampleAnalysis_Issue_5" class=" edge-thickness-normal edge-pattern-dashed relation" style=";;;" data-edge="true" data-et="edge" data-id="id_ExampleAnalysis_Issue_5" data-points="W3sieCI6NDMwLjM2NzE4NzUsInkiOjEzNi45MzY1OTE4NjY1NjM1fSx7IngiOjM0My41NjI1LCJ5IjoxODl9LHsieCI6MzQzLjU2MjUsInkiOjMxM30seyJ4IjozNDMuNTYyNSwieSI6NDM3fSx7IngiOjM0My41NjI1LCJ5Ijo0NzR9XQ==" marker-end="url(#mermaid-svg_class-dependencyEnd)"/><path d="M620.227,130.07L638.848,139.892C657.469,149.714,694.711,169.357,713.332,199.845C731.953,230.333,731.953,271.667,731.953,313C731.953,354.333,731.953,395.667,729.814,433.008C727.676,470.35,723.398,503.699,721.26,520.374L719.121,537.049" id="id_ExampleAnalysis_config_6" class=" edge-thickness-normal edge-pattern-solid relation" style=";;;" data-edge="true" data-et="edge" data-id="id_ExampleAnalysis_config_6" data-points="W3sieCI6NjIwLjIyNjU2MjUsInkiOjEzMC4wNzAyNzgyMzk4MzA2M30seyJ4Ijo3MzEuOTUzMTI1LCJ5IjoxODl9LHsieCI6NzMxLjk1MzEyNSwieSI6MzEzfSx7IngiOjczMS45NTMxMjUsInkiOjQzN30seyJ4Ijo3MTguMzU3Nzg2NTY2MzksInkiOjU0M31d" marker-end="url(#mermaid-svg_class-dependencyEnd)"/><path d="M574.354,397L578.248,403.667C582.141,410.333,589.928,423.667,601.002,447.081C612.076,470.495,626.437,503.99,633.617,520.738L640.798,537.485" id="id_DataLoader_config_7" class=" edge-thickness-normal edge-pattern-solid relation" style=";;;" data-edge="true" data-et="edge" data-id="id_DataLoader_config_7" data-points="W3sieCI6NTc0LjM1NDIwODY2OTM1NDksInkiOjM5N30seyJ4Ijo1OTcuNzE0ODQzNzUsInkiOjQzN30seyJ4Ijo2NDMuMTYyMDY4ODUzNzM0NSwieSI6NTQzfV0=" marker-end="url(#mermaid-svg_class-dependencyEnd)"/><path d="M149.832,400L149.832,406.167C149.832,412.333,149.832,424.667,163.37,447.674C176.907,470.681,203.982,504.363,217.52,521.203L231.057,538.044" id="id_scrape_github_Issue_8" class=" edge-thickness-normal edge-pattern-dashed relation" style=";;;" data-edge="true" data-et="edge" data-id="id_scrape_github_Issue_8" data-points="W3sieCI6MTQ5LjgzMjAzMTI1LCJ5Ijo0MDB9LHsieCI6MTQ5LjgzMjAzMTI1LCJ5Ijo0Mzd9LHsieCI6MjM0LjgxNjQwNjI1LCJ5Ijo1NDIuNzIwMjU0MDU3ODY4N31d" marker-end="url(#mermaid-svg_class-dependencyEnd)"/></g><g class="edgeLabels"><g class="edgeLabel" transform="translate(181.974609375, 919)"><g class="label" data-id="id_Issue_Event_1" transform="translate(-29.796875, -12)"><foreignObject width="59.59375" height="24"><div xmlns="http://www.w3.org/1999/xhtml" class="labelBkg" style="display: table-cell; white-space: nowrap; line-height: 1.5; max-width: 200px; text-align: center;"><span class="edgeLabel "><p>contains</p></span></div></foreignObject></g></g><g class="edgeLabel" transform="translate(397.416015625, 919)"><g class="label" data-id="id_Issue_State_2" transform="translate(-16.8984375, -12)"><foreignObject width="33.796875" height="24"><div xmlns="http://www.w3.org/1999/xhtml" class="labelBkg" style="display: table-cell; white-space: nowrap; line-height: 1.5; max-width: 200px; text-align: center;"><span class="edgeLabel "><p>uses</p></span></div></foreignObject></g></g><g class="edgeLabel" transform="translate(477.427734375, 437)"><g class="label" data-id="id_DataLoader_Issue_3" transform="translate(-26.234375, -12)"><foreignObject width="52.46875" height="24"><div xmlns="http://www.w3.org/1999/xhtml" class="labelBkg" style="display: table-cell; white-space: nowrap; line-height: 1.5; max-width: 200px; text-align: center;"><span class="edgeLabel "><p>creates</p></span></div></foreignObject></g></g><g class="edgeLabel" transform="translate(525.296875, 189)"><g class="label" data-id="id_ExampleAnalysis_DataLoader_4" transform="translate(-16.8984375, -12)"><foreignObject width="33.796875" height="24"><div xmlns="http://www.w3.org/1999/xhtml" class="labelBkg" style="display: table-cell; white-space: nowrap; line-height: 1.5; max-width: 200px; text-align: center;"><span class="edgeLabel "><p>uses</p></span></div></foreignObject></g></g><g class="edgeLabel" transform="translate(343.5625, 313)"><g class="label" data-id="id_ExampleAnalysis_Issue_5" transform="translate(-16.8984375, -12)"><foreignObject width="33.796875" height="24"><div xmlns="http://www.w3.org/1999/xhtml" class="labelBkg" style="display: table-cell; white-space: nowrap; line-height: 1.5; max-width: 200px; text-align: center;"><span class="edgeLabel "><p>uses</p></span></div></foreignObject></g></g><g class="edgeLabel" transform="translate(731.953125, 313)"><g class="label" data-id="id_ExampleAnalysis_config_6" transform="translate(-41.8203125, -12)"><foreignObject width="83.640625" height="24"><div xmlns="http://www.w3.org/1999/xhtml" class="labelBkg" style="display: table-cell; white-space: nowrap; line-height: 1.5; max-width: 200px; text-align: center;"><span class="edgeLabel "><p>depends on</p></span></div></foreignObject></g></g><g class="edgeLabel" transform="translate(611.31174, 468.71308)"><g class="label" data-id="id_DataLoader_config_7" transform="translate(-41.8203125, -12)"><foreignObject width="83.640625" height="24"><div xmlns="http://www.w3.org/1999/xhtml" class="labelBkg" style="display: table-cell; white-space: nowrap; line-height: 1.5; max-width: 200px; text-align: center;"><span class="edgeLabel "><p>depends on</p></span></div></foreignObject></g></g><g class="edgeLabel" transform="translate(149.83203125, 437)"><g class="label" data-id="id_scrape_github_Issue_8" transform="translate(-64.015625, -12)"><foreignObject width="128.03125" height="24"><div xmlns="http://www.w3.org/1999/xhtml" class="labelBkg" style="display: table-cell; white-space: nowrap; line-height: 1.5; max-width: 200px; text-align: center;"><span class="edgeLabel "><p>mirrors schema of</p></span></div></foreignObject></g></g><g class="edgeTerminals" transform="translate(212.61199154485757, 846.3709306032729)"><g class="inner" transform="translate(0, 0)"><foreignObject style="width: 9px; height: 12px;"><div xmlns="http://www.w3.org/1999/xhtml" style="display: inline-block; padding-right: 1px; white-space: nowrap;"><span class="edgeLabel">1</span></div></foreignObject></g></g><g class="edgeTerminals" transform="translate(191.9746096875, 933.5000002678571)"><g class="inner" transform="translate(0, 0)"/><foreignObject style="width: 36px; height: 12px;"><div xmlns="http://www.w3.org/1999/xhtml" style="display: inline-block; padding-right: 1px; white-space: nowrap;"><span class="edgeLabel">0..*</span></div></foreignObject></g></g><g class="nodes"><g class="node default " id="classId-State-0" transform="translate(397.416015625, 1076)"><g class="basic label-container"><path d="M-65.375 -84 L65.375 -84 L65.375 84 L-65.375 84" stroke="none" stroke-width="0" fill="#ECECFF" style=""/><path d="M-65.375 -84 C-25.666914048678564 -84, 14.041171902642873 -84, 65.375 -84 M-65.375 -84 C-32.83015576199237 -84, -0.28531152398474546 -84, 65.375 -84 M65.375 -84 C65.375 -48.15093867060483, 65.375 -12.30187734120966, 65.375 84 M65.375 -84 C65.375 -49.784372034734155, 65.375 -15.568744069468309, 65.375 84 M65.375 84 C35.22839702389493 84, 5.081794047789849 84, -65.375 84 M65.375 84 C27.64600657482682 84, -10.082986850346359 84, -65.375 84 M-65.375 84 C-65.375 22.483646374796514, -65.375 -39.03270725040697, -65.375 -84 M-65.375 84 C-65.375 24.096564307012386, -65.375 -35.80687138597523, -65.375 -84" stroke="#9370DB" stroke-width="1.3" fill="none" stroke-dasharray="0 0" style=""/></g><g class="annotation-group text" transform="translate(-53.375, -60)"><g class="label" style="" transform="translate(0,-12)"><foreignObject width="106.75" height="24"><div xmlns="http://www.w3.org/1999/xhtml" style="display: table-cell; white-space: nowrap; line-height: 1.5; max-width: 146px; text-align: center;"><span class="nodeLabel markdown-node-label" style=""><p>«enumeration»</p></span></div></foreignObject></g></g><g class="label-group text" transform="translate(-19.5625, -36)"><g class="label" style="font-weight: bolder" transform="translate(0,-12)"><foreignObject width="39.125" height="24"><div xmlns="http://www.w3.org/1999/xhtml" style="display: table-cell; white-space: nowrap; line-height: 1.5; max-width: 82px; text-align: center;"><span class="nodeLabel markdown-node-label" style=""><p>State</p></span></div></foreignObject></g></g><g class="members-group text" transform="translate(-53.375, 12)"><g class="label" style="" transform="translate(0,-12)"><foreignObject width="35.59375" height="24"><div xmlns="http://www.w3.org/1999/xhtml" style="display: table-cell; white-space: nowrap; line-height: 1.5; max-width: 81px; text-align: center;"><span class="nodeLabel markdown-node-label" style=""><p>open</p></span></div></foreignObject></g><g class="label" style="" transform="translate(0,12)"><foreignObject width="46.25" height="24"><div xmlns="http://www.w3.org/1999/xhtml" style="display: table-cell; white-space: nowrap; line-height: 1.5; max-width: 91px; text-align: center;"><span class="nodeLabel markdown-node-label" style=""><p>closed</p></span></div></foreignObject></g></g><g class="methods-group text" transform="translate(-53.375, 84)"/><g class="divider" style=""><path d="M-65.375 -12 C-24.512059401180615 -12, 16.35088119763877 -12, 65.375 -12 M-65.375 -12 C-19.07345669199836 -12, 27.22808661600328 -12, 65.375 -12" stroke="#9370DB" stroke-width="1.3" fill="none" stroke-dasharray="0 0" style=""/></g><g class="divider" style=""><path d="M-65.375 60 C-34.9561663055449 60, -4.537332611089802 60, 65.375 60 M-65.375 60 C-29.990832080433094 60, 5.393335839133812 60, 65.375 60" stroke="#9370DB" stroke-width="1.3" fill="none" stroke-dasharray="0 0" style=""/></g></g><g class="node default " id="classId-Event-1" transform="translate(181.974609375, 1076)"><g class="basic label-container"><path d="M-100.06640625 -120 L100.06640625 -120 L100.06640625 120 L-100.06640625 120" stroke="none" stroke-width="0" fill="#ECECFF" style=""/><path d="M-100.06640625 -120 C-28.337808152991272 -120, 43.390789944017456 -120, 100.06640625 -120 M-100.06640625 -120 C-23.090378217722446 -120, 53.88564981455511 -120, 100.06640625 -120 M100.06640625 -120 C100.06640625 -34.3074089490008, 100.06640625 51.385182101998396, 100.06640625 120 M100.06640625 -120 C100.06640625 -71.45282256721876, 100.06640625 -22.905645134437506, 100.06640625 120 M100.06640625 120 C47.48045107988557 120, -5.105504090228862 120, -100.06640625 120 M100.06640625 120 C22.31648770097317 120, -55.43343084805366 120, -100.06640625 120 M-100.06640625 120 C-100.06640625 62.13311775195528, -100.06640625 4.266235503910565, -100.06640625 -120 M-100.06640625 120 C-100.06640625 27.4213245379496, -100.06640625 -65.1573509241008, -100.06640625 -120" stroke="#9370DB" stroke-width="1.3" fill="none" stroke-dasharray="0 0" style=""/></g><g class="annotation-group text" transform="translate(0, -96)"/><g class="label-group text" transform="translate(-21.7890625, -96)"><g class="label" style="font-weight: bolder" transform="translate(0,-12)"><foreignObject width="43.578125" height="24"><div xmlns="http://www.w3.org/1999/xhtml" style="display: table-cell; white-space: nowrap; line-height: 1.5; max-width: 88px; text-align: center;"><span class="nodeLabel markdown-node-label" style=""><p>Event</p></span></div></foreignObject></g></g><g class="members-group text" transform="translate(-88.06640625, -48)"><g class="label" style="" transform="translate(0,-12)"><foreignObject width="133.875" height="24"><div xmlns="http://www.w3.org/1999/xhtml" style="display: table-cell; white-space: nowrap; line-height: 1.5; max-width: 177px; text-align: center;"><span class="nodeLabel markdown-node-label" style=""><p>+String event_type</p></span></div></foreignObject></g><g class="label" style="" transform="translate(0,12)"><foreignObject width="100.953125" height="24"><div xmlns="http://www.w3.org/1999/xhtml" style="display: table-cell; white-space: nowrap; line-height: 1.5; max-width: 148px; text-align: center;"><span class="nodeLabel markdown-node-label" style=""><p>+String author</p></span></div></foreignObject></g><g class="label" style="" transform="translate(0,36)"><foreignObject width="154.34375" height="24"><div xmlns="http://www.w3.org/1999/xhtml" style="display: table-cell; white-space: nowrap; line-height: 1.5; max-width: 209px; text-align: center;"><span class="nodeLabel markdown-node-label" style=""><p>+datetime event_date</p></span></div></foreignObject></g><g class="label" style="" transform="translate(0,60)"><foreignObject width="89.390625" height="24"><div xmlns="http://www.w3.org/1999/xhtml" style="display: table-cell; white-space: nowrap; line-height: 1.5; max-width: 138px; text-align: center;"><span class="nodeLabel markdown-node-label" style=""><p>+String label</p></span></div></foreignObject></g><g class="label" style="" transform="translate(0,84)"><foreignObject width="121.390625" height="24"><div xmlns="http://www.w3.org/1999/xhtml" style="display: table-cell; white-space: nowrap; line-height: 1.5; max-width: 167px; text-align: center;"><span class="nodeLabel markdown-node-label" style=""><p>+String comment</p></span></div></foreignObject></g></g><g class="methods-group text" transform="translate(-88.06640625, 96)"><g class="label" style="" transform="translate(0,-12)"><foreignObject width="115.15625" height="24"><div xmlns="http://www.w3.org/1999/xhtml" style="display: table-cell; white-space: nowrap; line-height: 1.5; max-width: 165px; text-align: center;"><span class="nodeLabel markdown-node-label" style=""><p>+from_json(jobj)</p></span></div></foreignObject></g></g><g class="divider" style=""><path d="M-100.06640625 -72 C-21.20271707937661 -72, 57.66097209124678 -72, 100.06640625 -72 M-100.06640625 -72 C-41.22625574375091 -72, 17.613894762498177 -72, 100.06640625 -72" stroke="#9370DB" stroke-width="1.3" fill="none" stroke-dasharray="0 0" style=""/></g><g class="divider" style=""><path d="M-100.06640625 72 C-55.895619309286246 72, -11.724832368572493 72, 100.06640625 72 M-100.06640625 72 C-49.125728225575294 72, 1.8149497988494119 72, 100.06640625 72" stroke="#9370DB" stroke-width="1.3" fill="none" stroke-dasharray="0 0" style=""/></g></g><g class="node default " id="classId-Issue-2" transform="translate(343.5625, 678)"><g class="basic label-container"><path d="M-108.74609375 -204 L108.74609375 -204 L108.74609375 204 L-108.74609375 204" stroke="none" stroke-width="0" fill="#ECECFF" style=""/><path d="M-108.74609375 -204 C-25.5117321225936 -204, 57.7226295048128 -204, 108.74609375 -204 M-108.74609375 -204 C-41.89622136457956 -204, 24.95365102084088 -204, 108.74609375 -204 M108.74609375 -204 C108.74609375 -54.38321978797242, 108.74609375 95.23356042405516, 108.74609375 204 M108.74609375 -204 C108.74609375 -50.18173591229569, 108.74609375 103.63652817540861, 108.74609375 204 M108.74609375 204 C47.311718591861094 204, -14.122656566277811 204, -108.74609375 204 M108.74609375 204 C34.47840230709677 204, -39.789289135806456 204, -108.74609375 204 M-108.74609375 204 C-108.74609375 85.73268586222466, -108.74609375 -32.53462827555069, -108.74609375 -204 M-108.74609375 204 C-108.74609375 69.23487599732215, -108.74609375 -65.5302480053557, -108.74609375 -204" stroke="#9370DB" stroke-width="1.3" fill="none" stroke-dasharray="0 0" style=""/></g><g class="annotation-group text" transform="translate(0, -180)"/><g class="label-group text" transform="translate(-20.4609375, -180)"><g class="label" style="font-weight: bolder" transform="translate(0,-12)"><foreignObject width="40.921875" height="24"><div xmlns="http://www.w3.org/1999/xhtml" style="display: table-cell; white-space: nowrap; line-height: 1.5; max-width: 83px; text-align: center;"><span class="nodeLabel markdown-node-label" style=""><p>Issue</p></span></div></foreignObject></g></g><g class="members-group text" transform="translate(-96.74609375, -132)"><g class="label" style="" transform="translate(0,-12)"><foreignObject width="73.375" height="24"><div xmlns="http://www.w3.org/1999/xhtml" style="display: table-cell; white-space: nowrap; line-height: 1.5; max-width: 125px; text-align: center;"><span class="nodeLabel markdown-node-label" style=""><p>+String url</p></span></div></foreignObject></g><g class="label" style="" transform="translate(0,12)"><foreignObject width="105.390625" height="24"><div xmlns="http://www.w3.org/1999/xhtml" style="display: table-cell; white-space: nowrap; line-height: 1.5; max-width: 152px; text-align: center;"><span class="nodeLabel markdown-node-label" style=""><p>+String creator</p></span></div></foreignObject></g><g class="label" style="" transform="translate(0,36)"><foreignObject width="140.984375" height="24"><div xmlns="http://www.w3.org/1999/xhtml" style="display: table-cell; white-space: nowrap; line-height: 1.5; max-width: 224px; text-align: center;"><span class="nodeLabel markdown-node-label" style=""><p>+List&lt;String&gt; labels</p></span></div></foreignObject></g><g class="label" style="" transform="translate(0,60)"><foreignObject width="85.84375" height="24"><div xmlns="http://www.w3.org/1999/xhtml" style="display: table-cell; white-space: nowrap; line-height: 1.5; max-width: 129px; text-align: center;"><span class="nodeLabel markdown-node-label" style=""><p>+State state</p></span></div></foreignObject></g><g class="label" style="" transform="translate(0,84)"><foreignObject width="171.21875" height="24"><div xmlns="http://www.w3.org/1999/xhtml" style="display: table-cell; white-space: nowrap; line-height: 1.5; max-width: 247px; text-align: center;"><span class="nodeLabel markdown-node-label" style=""><p>+List&lt;String&gt; assignees</p></span></div></foreignObject></g><g class="label" style="" transform="translate(0,108)"><foreignObject width="80.484375" height="24"><div xmlns="http://www.w3.org/1999/xhtml" style="display: table-cell; white-space: nowrap; line-height: 1.5; max-width: 131px; text-align: center;"><span class="nodeLabel markdown-node-label" style=""><p>+String title</p></span></div></foreignObject></g><g class="label" style="" transform="translate(0,132)"><foreignObject width="81.375" height="24"><div xmlns="http://www.w3.org/1999/xhtml" style="display: table-cell; white-space: nowrap; line-height: 1.5; max-width: 131px; text-align: center;"><span class="nodeLabel markdown-node-label" style=""><p>+String text</p></span></div></foreignObject></g><g class="label" style="" transform="translate(0,156)"><foreignObject width="84.9375" height="24"><div xmlns="http://www.w3.org/1999/xhtml" style="display: table-cell; white-space: nowrap; line-height: 1.5; max-width: 134px; text-align: center;"><span class="nodeLabel markdown-node-label" style=""><p>+int number</p></span></div></foreignObject></g><g class="label" style="" transform="translate(0,180)"><foreignObject width="168.5625" height="24"><div xmlns="http://www.w3.org/1999/xhtml" style="display: table-cell; white-space: nowrap; line-height: 1.5; max-width: 223px; text-align: center;"><span class="nodeLabel markdown-node-label" style=""><p>+datetime created_date</p></span></div></foreignObject></g><g class="label" style="" transform="translate(0,204)"><foreignObject width="173.03125" height="24"><div xmlns="http://www.w3.org/1999/xhtml" style="display: table-cell; white-space: nowrap; line-height: 1.5; max-width: 208px; text-align: center;"><span class="nodeLabel markdown-node-label" style=""><p>+datetime updated_date</p></span></div></foreignObject></g><g class="label" style="" transform="translate(0,228)"><foreignObject width="137.40625" height="24"><div xmlns="http://www.w3.org/1999/xhtml" style="display: table-cell; white-space: nowrap; line-height: 1.5; max-width: 185px; text-align: center;"><span class="nodeLabel markdown-node-label" style=""><p>+String timeline_url</p></span></div></foreignObject></g><g class="label" style="" transform="translate(0,252)"><foreignObject width="145.4375" height="24"><div xmlns="http://www.w3.org/1999/xhtml" style="display: table-cell; white-space: nowrap; line-height: 1.5; max-width: 226px; text-align: center;"><span class="nodeLabel markdown-node-label" style=""><p>+List&lt;Event&gt; events</p></span></div></foreignObject></g></g><g class="methods-group text" transform="translate(-96.74609375, 180)"><g class="label" style="" transform="translate(0,-12)"><foreignObject width="115.15625" height="24"><div xmlns="http://www.w3.org/1999/xhtml" style="display: table-cell; white-space: nowrap; line-height: 1.5; max-width: 165px; text-align: center;"><span class="nodeLabel markdown-node-label" style=""><p>+from_json(jobj)</p></span></div></foreignObject></g></g><g class="divider" style=""><path d="M-108.74609375 -156 C-25.18182602845212 -156, 58.38244169309576 -156, 108.74609375 -156 M-108.74609375 -156 C-52.9475438471858 -156, 2.851006055628403 -156, 108.74609375 -156" stroke="#9370DB" stroke-width="1.3" fill="none" stroke-dasharray="0 0" style=""/></g><g class="divider" style=""><path d="M-108.74609375 156 C-28.341509098144243 156, 52.06307555371151 156, 108.74609375 156 M-108.74609375 156 C-61.27509405818427 156, -13.804094366368545 156, 108.74609375 156" stroke="#9370DB" stroke-width="1.3" fill="none" stroke-dasharray="0 0" style=""/></g></g><g class="node default " id="classId-DataLoader-3" transform="translate(525.296875, 313)"><g class="basic label-container"><path d="M-129.8359375 -84 L129.8359375 -84 L129.8359375 84 L-129.8359375 84" stroke="none" stroke-width="0" fill="#ECECFF" style=""/><path d="M-129.8359375 -84 C-44.35938014801434 -84, 41.11717720397132 -84, 129.8359375 -84 M-129.8359375 -84 C-30.6932275852849 -84, 68.4494823294302 -84, 129.8359375 -84 M129.8359375 -84 C129.8359375 -30.858535547374167, 129.8359375 22.282928905251666, 129.8359375 84 M129.8359375 -84 C129.8359375 -29.56694035336553, 129.8359375 24.866119293268937, 129.8359375 84 M129.8359375 84 C51.47141747032677 84, -26.89310255934646 84, -129.8359375 84 M129.8359375 84 C33.67566440429883 84, -62.48460869140234 84, -129.8359375 84 M-129.8359375 84 C-129.8359375 36.518553736324684, -129.8359375 -10.962892527350633, -129.8359375 -84 M-129.8359375 84 C-129.8359375 42.17951566493056, -129.8359375 0.35903132986112496, -129.8359375 -84" stroke="#9370DB" stroke-width="1.3" fill="none" stroke-dasharray="0 0" style=""/></g><g class="annotation-group text" transform="translate(0, -60)"/><g class="label-group text" transform="translate(-44.015625, -60)"><g class="label" style="font-weight: bolder" transform="translate(0,-12)"><foreignObject width="88.03125" height="24"><div xmlns="http://www.w3.org/1999/xhtml" style="display: table-cell; white-space: nowrap; line-height: 1.5; max-width: 126px; text-align: center;"><span class="nodeLabel markdown-node-label" style=""><p>DataLoader</p></span></div></foreignObject></g></g><g class="members-group text" transform="translate(-117.8359375, -12)"><g class="label" style="" transform="translate(0,-12)"><foreignObject width="126.765625" height="24"><div xmlns="http://www.w3.org/1999/xhtml" style="display: table-cell; white-space: nowrap; line-height: 1.5; max-width: 169px; text-align: center;"><span class="nodeLabel markdown-node-label" style=""><p>+String data_path</p></span></div></foreignObject></g></g><g class="methods-group text" transform="translate(-117.8359375, 36)"><g class="label" style="" transform="translate(0,-12)"><foreignObject width="191.65625" height="24"><div xmlns="http://www.w3.org/1999/xhtml" style="display: table-cell; white-space: nowrap; line-height: 1.5; max-width: 265px; text-align: center;"><span class="nodeLabel markdown-node-label" style=""><p>+get_issues() : List&lt;Issue&gt;</p></span></div></foreignObject></g><g class="label" style="" transform="translate(0,12)"><foreignObject width="150.296875" height="24"><div xmlns="http://www.w3.org/1999/xhtml" style="display: table-cell; white-space: nowrap; line-height: 1.5; max-width: 231px; text-align: center;"><span class="nodeLabel markdown-node-label" style=""><p>-_load() : List&lt;Issue&gt;</p></span></div></foreignObject></g></g><g class="divider" style=""><path d="M-129.8359375 -36 C-56.639968125046934 -36, 16.55600124990613 -36, 129.8359375 -36 M-129.8359375 -36 C-41.206426149169616 -36, 47.42308520166077 -36, 129.8359375 -36" stroke="#9370DB" stroke-width="1.3" fill="none" stroke-dasharray="0 0" style=""/></g><g class="divider" style=""><path d="M-129.8359375 12 C-57.313051349217446 12, 15.209834801565108 12, 129.8359375 12 M-129.8359375 12 C-26.458009819747105 12, 76.91991786050579 12, 129.8359375 12" stroke="#9370DB" stroke-width="1.3" fill="none" stroke-dasharray="0 0" style=""/></g></g><g class="node default " id="classId-ExampleAnalysis-4" transform="translate(525.296875, 80)"><g class="basic label-container"><path d="M-94.9296875 -72 L94.9296875 -72 L94.9296875 72 L-94.9296875 72" stroke="none" stroke-width="0" fill="#ECECFF" style=""/><path d="M-94.9296875 -72 C-38.62437424000672 -72, 17.680939019986553 -72, 94.9296875 -72 M-94.9296875 -72 C-41.657495179798715 -72, 11.61469714040257 -72, 94.9296875 -72 M94.9296875 -72 C94.9296875 -17.26933868537987, 94.9296875 37.46132262924026, 94.9296875 72 M94.9296875 -72 C94.9296875 -19.522637110404617, 94.9296875 32.95472577919077, 94.9296875 72 M94.9296875 72 C47.2254276628274 72, -0.4788321743452002 72, -94.9296875 72 M94.9296875 72 C42.780039513477846 72, -9.369608473044309 72, -94.9296875 72 M-94.9296875 72 C-94.9296875 43.1705498960833, -94.9296875 14.341099792166602, -94.9296875 -72 M-94.9296875 72 C-94.9296875 37.16795876317966, -94.9296875 2.3359175263593244, -94.9296875 -72" stroke="#9370DB" stroke-width="1.3" fill="none" stroke-dasharray="0 0" style=""/></g><g class="annotation-group text" transform="translate(0, -48)"/><g class="label-group text" transform="translate(-65.8125, -48)"><g class="label" style="font-weight: bolder" transform="translate(0,-12)"><foreignObject width="131.625" height="24"><div xmlns="http://www.w3.org/1999/xhtml" style="display: table-cell; white-space: nowrap; line-height: 1.5; max-width: 163px; text-align: center;"><span class="nodeLabel markdown-node-label" style=""><p>ExampleAnalysis</p></span></div></foreignObject></g></g><g class="members-group text" transform="translate(-82.9296875, 0)"><g class="label" style="" transform="translate(0,-12)"><foreignObject width="100.046875" height="24"><div xmlns="http://www.w3.org/1999/xhtml" style="display: table-cell; white-space: nowrap; line-height: 1.5; max-width: 148px; text-align: center;"><span class="nodeLabel markdown-node-label" style=""><p>+String USER</p></span></div></foreignObject></g></g><g class="methods-group text" transform="translate(-82.9296875, 48)"><g class="label" style="" transform="translate(0,-12)"><foreignObject width="43.125" height="24"><div xmlns="http://www.w3.org/1999/xhtml" style="display: table-cell; white-space: nowrap; line-height: 1.5; max-width: 95px; text-align: center;"><span class="nodeLabel markdown-node-label" style=""><p>+run()</p></span></div></foreignObject></g></g><g class="divider" style=""><path d="M-94.9296875 -24 C-31.44496052640084 -24, 32.03976644719832 -24, 94.9296875 -24 M-94.9296875 -24 C-27.4740806924369 -24, 39.9815261151262 -24, 94.9296875 -24" stroke="#9370DB" stroke-width="1.3" fill="none" stroke-dasharray="0 0" style=""/></g><g class="divider" style=""><path d="M-94.9296875 24 C-45.49778125309745 24, 3.9341249938050993 24, 94.9296875 24 M-94.9296875 24 C-45.4861224633541 24, 3.9574425732918 24, 94.9296875 24" stroke="#9370DB" stroke-width="1.3" fill="none" stroke-dasharray="0 0" style=""/></g></g><g class="node default " id="classId-config-5" transform="translate(701.04296875, 678)"><g class="basic label-container"><path d="M-143.6484375 -135 L143.6484375 -135 L143.6484375 135 L-143.6484375 135" stroke="none" stroke-width="0" fill="#ECECFF" style=""/><path d="M-143.6484375 -135 C-77.25182916823555 -135, -10.85522083647109 -135, 143.6484375 -135 M-143.6484375 -135 C-47.12800820191113 -135, 49.39242109617774 -135, 143.6484375 -135 M143.6484375 -135 C143.6484375 -34.889530402786235, 143.6484375 65.22093919442753, 143.6484375 135 M143.6484375 -135 C143.6484375 -33.920491044270335, 143.6484375 67.15901791145933, 143.6484375 135 M143.6484375 135 C80.29471103821629 135, 16.94098457643257 135, -143.6484375 135 M143.6484375 135 C57.40323155668696 135, -28.841974386626077 135, -143.6484375 135 M-143.6484375 135 C-143.6484375 33.38924043502419, -143.6484375 -68.22151912995162, -143.6484375 -135 M-143.6484375 135 C-143.6484375 63.81314069161742, -143.6484375 -7.37371861676516, -143.6484375 -135" stroke="#9370DB" stroke-width="1.3" fill="none" stroke-dasharray="0 0" style=""/></g><g class="annotation-group text" transform="translate(-35.140625, -111)"><g class="label" style="" transform="translate(0,-12)"><foreignObject width="70.28125" height="24"><div xmlns="http://www.w3.org/1999/xhtml" style="display: table-cell; white-space: nowrap; line-height: 1.5; max-width: 114px; text-align: center;"><span class="nodeLabel markdown-node-label" style=""><p>«module»</p></span></div></foreignObject></g></g><g class="label-group text" transform="translate(-24, -87)"><g class="label" style="font-weight: bolder" transform="translate(0,-12)"><foreignObject width="48" height="24"><div xmlns="http://www.w3.org/1999/xhtml" style="display: table-cell; white-space: nowrap; line-height: 1.5; max-width: 91px; text-align: center;"><span class="nodeLabel markdown-node-label" style=""><p>config</p></span></div></foreignObject></g></g><g class="members-group text" transform="translate(-131.6484375, -39)"/><g class="methods-group text" transform="translate(-131.6484375, -9)"><g class="label" style="" transform="translate(0,-12)"><foreignObject width="221.015625" height="24"><div xmlns="http://www.w3.org/1999/xhtml" style="display: table-cell; white-space: nowrap; line-height: 1.5; max-width: 253px; text-align: center;"><span class="nodeLabel markdown-node-label" style=""><p>+get_parameter(name, default)</p></span></div></foreignObject></g><g class="label" style="" transform="translate(0,12)"><foreignObject width="210.328125" height="24"><div xmlns="http://www.w3.org/1999/xhtml" style="display: table-cell; white-space: nowrap; line-height: 1.5; max-width: 241px; text-align: center;"><span class="nodeLabel markdown-node-label" style=""><p>+set_parameter(name, value)</p></span></div></foreignObject></g><g class="label" style="" transform="translate(0,36)"><foreignObject width="228.15625" height="24"><div xmlns="http://www.w3.org/1999/xhtml" style="display: table-cell; white-space: nowrap; line-height: 1.5; max-width: 263px; text-align: center;"><span class="nodeLabel markdown-node-label" style=""><p>+convert_to_typed_value(value)</p></span></div></foreignObject></g><g class="label" style="" transform="translate(0,60)"><foreignObject width="196.953125" height="24"><div xmlns="http://www.w3.org/1999/xhtml" style="display: table-cell; white-space: nowrap; line-height: 1.5; max-width: 235px; text-align: center;"><span class="nodeLabel markdown-node-label" style=""><p>+overwrite_from_args(args)</p></span></div></foreignObject></g><g class="label" style="" transform="translate(0,84)"><foreignObject width="128.078125" height="24"><div xmlns="http://www.w3.org/1999/xhtml" style="display: table-cell; white-space: nowrap; line-height: 1.5; max-width: 176px; text-align: center;"><span class="nodeLabel markdown-node-label" style=""><p>-_init_config(path)</p></span></div></foreignObject></g><g class="label" style="" transform="translate(0,108)"><foreignObject width="144.109375" height="24"><div xmlns="http://www.w3.org/1999/xhtml" style="display: table-cell; white-space: nowrap; line-height: 1.5; max-width: 186px; text-align: center;"><span class="nodeLabel markdown-node-label" style=""><p>-_get_default_path()</p></span></div></foreignObject></g></g><g class="divider" style=""><path d="M-143.6484375 -63 C-43.60140324514606 -63, 56.44563100970788 -63, 143.6484375 -63 M-143.6484375 -63 C-51.48056820045744 -63, 40.68730109908512 -63, 143.6484375 -63" stroke="#9370DB" stroke-width="1.3" fill="none" stroke-dasharray="0 0" style=""/></g><g class="divider" style=""><path d="M-143.6484375 -39 C-69.71131159321952 -39, 4.22581431356096 -39, 143.6484375 -39 M-143.6484375 -39 C-80.3363893984146 -39, -17.024341296829192 -39, 143.6484375 -39" stroke="#9370DB" stroke-width="1.3" fill="none" stroke-dasharray="0 0" style=""/></g></g><g class="node default " id="classId-scrape_github-6" transform="translate(149.83203125, 313)"><g class="basic label-container"><path d="M-141.83203125 -87 L141.83203125 -87 L141.83203125 87 L-141.83203125 87" stroke="none" stroke-width="0" fill="#ECECFF" style=""/><path d="M-141.83203125 -87 C-49.222523259934405 -87, 43.38698473013119 -87, 141.83203125 -87 M-141.83203125 -87 C-55.03141228701104 -87, 31.769206675977927 -87, 141.83203125 -87 M141.83203125 -87 C141.83203125 -32.95191034490518, 141.83203125 21.09617931018964, 141.83203125 87 M141.83203125 -87 C141.83203125 -40.18498618206068, 141.83203125 6.630027635878633, 141.83203125 87 M141.83203125 87 C44.169657029757204 87, -53.49271719048559 87, -141.83203125 87 M141.83203125 87 C39.0991281106474 87, -63.6337750287052 87, -141.83203125 87 M-141.83203125 87 C-141.83203125 32.6594030702316, -141.83203125 -21.681193859536805, -141.83203125 -87 M-141.83203125 87 C-141.83203125 51.56767290953513, -141.83203125 16.135345819070267, -141.83203125 -87" stroke="#9370DB" stroke-width="1.3" fill="none" stroke-dasharray="0 0" style=""/></g><g class="annotation-group text" transform="translate(-35.140625, -63)"><g class="label" style="" transform="translate(0,-12)"><foreignObject width="70.28125" height="24"><div xmlns="http://www.w3.org/1999/xhtml" style="display: table-cell; white-space: nowrap; line-height: 1.5; max-width: 114px; text-align: center;"><span class="nodeLabel markdown-node-label" style=""><p>«module»</p></span></div></foreignObject></g></g><g class="label-group text" transform="translate(-54.6796875, -39)"><g class="label" style="font-weight: bolder" transform="translate(0,-12)"><foreignObject width="109.359375" height="24"><div xmlns="http://www.w3.org/1999/xhtml" style="display: table-cell; white-space: nowrap; line-height: 1.5; max-width: 140px; text-align: center;"><span class="nodeLabel markdown-node-label" style=""><p>scrape_github</p></span></div></foreignObject></g></g><g class="members-group text" transform="translate(-129.83203125, 9)"/><g class="methods-group text" transform="translate(-129.83203125, 39)"><g class="label" style="" transform="translate(0,-12)"><foreignObject width="148.953125" height="24"><div xmlns="http://www.w3.org/1999/xhtml" style="display: table-cell; white-space: nowrap; line-height: 1.5; max-width: 189px; text-align: center;"><span class="nodeLabel markdown-node-label" style=""><p>+format_issue(issue)</p></span></div></foreignObject></g><g class="label" style="" transform="translate(0,12)"><foreignObject width="204.984375" height="24"><div xmlns="http://www.w3.org/1999/xhtml" style="display: table-cell; white-space: nowrap; line-height: 1.5; max-width: 238px; text-align: center;"><span class="nodeLabel markdown-node-label" style=""><p>+format_issue_events(issue)</p></span></div></foreignObject></g></g><g class="divider" style=""><path d="M-141.83203125 -15 C-46.89901686809971 -15, 48.033997513800585 -15, 141.83203125 -15 M-141.83203125 -15 C-65.89324353726829 -15, 10.04554417546342 -15, 141.83203125 -15" stroke="#9370DB" stroke-width="1.3" fill="none" stroke-dasharray="0 0" style=""/></g><g class="divider" style=""><path d="M-141.83203125 9 C-74.56403091858488 9, -7.296030587169753 9, 141.83203125 9 M-141.83203125 9 C-54.66174699848041 9, 32.50853725303918 9, 141.83203125 9" stroke="#9370DB" stroke-width="1.3" fill="none" stroke-dasharray="0 0" style=""/></g></g></g></g></g></svg>